  0
SECTION
  2
HEADER
  9
$ACADVER
  1
AC1006
  9
$EXTMIN
 10
0.000000
 20
0.000000
 30
0.000000
  9
$EXTMAX
 10
928.000000
 20
1120.000000
 30
0.000000
  0
ENDSEC
  0
SECTION
  2
ENTITIES
  0
POLYLINE
  8
0
 66
1
 70
1
  0
VERTEX
  8
0
 10
389.818686
 20
1117.468228
 42
0.032376
  0
VERTEX
  8
0
 10
342.463865
 20
1107.112868
 42
0.032358
  0
VERTEX
  8
0
 10
296.833115
 20
1090.729299
 42
0.032629
  0
VERTEX
  8
0
 10
254.062883
 20
1068.753205
 42
0.034255
  0
VERTEX
  8
0
 10
215.241079
 20
1041.714696
 42
0.016283
  0
VERTEX
  8
0
 10
198.446598
 20
1027.296746
 42
0.013610
  0
VERTEX
  8
0
 10
181.561841
 20
1010.950784
 42
0.013673
  0
VERTEX
  8
0
 10
165.687153
 20
993.809317
 42
0.017012
  0
VERTEX
  8
0
 10
151.935374
 20
977.000000
 42
0.020645
  0
VERTEX
  8
0
 10
136.213879
 20
954.524038
 42
0.017625
  0
VERTEX
  8
0
 10
121.499478
 20
929.630605
 42
0.018040
  0
VERTEX
  8
0
 10
109.018609
 20
904.598683
 42
0.026646
  0
VERTEX
  8
0
 10
100.073001
 20
881.750000
 42
-0.010400
  0
VERTEX
  8
0
 10
98.799710
 20
878.158347
 42
-0.054123
  0
VERTEX
  8
0
 10
97.849834
 20
876.286667
 42
-0.110689
  0
VERTEX
  8
0
 10
96.876877
 20
875.338402
 42
-0.138245
  0
VERTEX
  8
0
 10
95.668470
 20
874.994423
 42
0.102295
  0
VERTEX
  8
0
 10
89.479532
 20
873.698234
 42
0.062265
  0
VERTEX
  8
0
 10
83.026398
 20
869.876350
 42
0.056860
  0
VERTEX
  8
0
 10
77.119327
 20
864.117761
 42
0.053928
  0
VERTEX
  8
0
 10
72.539734
 20
857.078411
 42
0.039915
  0
VERTEX
  8
0
 10
70.001192
 20
850.889284
 42
0.011732
  0
VERTEX
  8
0
 10
67.102955
 20
841.032811
 42
0.011911
  0
VERTEX
  8
0
 10
64.412083
 20
829.974684
 42
0.014249
  0
VERTEX
  8
0
 10
62.425650
 20
819.440638
 42
0.026118
  0
VERTEX
  8
0
 10
61.061520
 20
806.578717
 42
0.007575
  0
VERTEX
  8
0
 10
60.297537
 20
786.636826
 42
0.007671
  0
VERTEX
  8
0
 10
60.141197
 20
766.597261
 42
0.024201
  0
VERTEX
  8
0
 10
60.892071
 20
753.186736
 42
0.030586
  0
VERTEX
  8
0
 10
63.982114
 20
734.684137
 42
0.055096
  0
VERTEX
  8
0
 10
69.057398
 20
720.185081
 42
0.068787
  0
VERTEX
  8
0
 10
76.129878
 20
709.487336
 42
0.094264
  0
VERTEX
  8
0
 10
85.216756
 20
702.415814
 42
0.014855
  0
VERTEX
  8
0
 10
87.162714
 20
701.491040
 42
0.016097
  0
VERTEX
  8
0
 10
89.109263
 20
700.709645
 42
0.015768
  0
VERTEX
  8
0
 10
90.813333
 20
700.148695
 42
0.071742
  0
VERTEX
  8
0
 10
91.844312
 20
700.000000
 42
-0.167371
  0
VERTEX
  8
0
 10
93.814019
 20
699.321654
 42
-0.127822
  0
VERTEX
  8
0
 10
95.209000
 20
697.498767
 42
-0.049154
  0
VERTEX
  8
0
 10
96.379668
 20
693.723705
 42
-0.006512
  0
VERTEX
  8
0
 10
97.956546
 20
685.500000
 42
0.006738
  0
VERTEX
  8
0
 10
99.917498
 20
675.298189
 42
0.009189
  0
VERTEX
  8
0
 10
101.977105
 20
666.163148
 42
0.008150
  0
VERTEX
  8
0
 10
104.559101
 20
656.315882
 42
0.003918
  0
VERTEX
  8
0
 10
108.174446
 20
643.769912
 42
0.000000
  0
VERTEX
  8
0
 10
112.247793
 20
630.039823
 42
0.000000
  0
VERTEX
  8
0
 10
105.309054
 20
622.269912
 42
0.034756
  0
VERTEX
  8
0
 10
78.752948
 20
588.014894
 42
0.030315
  0
VERTEX
  8
0
 10
55.840289
 20
548.852502
 42
0.029284
  0
VERTEX
  8
0
 10
37.107151
 20
505.775328
 42
0.027348
  0
VERTEX
  8
0
 10
23.043554
 20
459.818693
 42
0.022904
  0
VERTEX
  8
0
 10
16.192124
 20
425.398729
 42
0.019024
  0
VERTEX
  8
0
 10
11.994764
 20
388.293682
 42
0.019140
  0
VERTEX
  8
0
 10
10.649206
 20
351.266157
 42
0.024273
  0
VERTEX
  8
0
 10
12.376248
 20
317.088763
 42
0.014392
  0
VERTEX
  8
0
 10
15.364970
 20
293.831805
 42
0.007401
  0
VERTEX
  8
0
 10
20.374754
 20
264.888613
 42
0.005345
  0
VERTEX
  8
0
 10
25.860520
 20
237.386562
 42
0.053984
  0
VERTEX
  8
0
 10
29.478770
 20
226.298948
 42
0.065073
  0
VERTEX
  8
0
 10
31.305614
 20
223.340994
 42
0.091795
  0
VERTEX
  8
0
 10
33.660829
 20
221.339064
 42
0.095572
  0
VERTEX
  8
0
 10
36.500359
 20
220.363748
 42
0.076323
  0
VERTEX
  8
0
 10
39.742741
 20
220.402859
 42
-0.013076
  0
VERTEX
  8
0
 10
44.925001
 20
221.123972
 42
-0.177788
  0
VERTEX
  8
0
 10
46.747766
 20
220.678323
 42
-0.154499
  0
VERTEX
  8
0
 10
47.970873
 20
219.142511
 42
-0.009211
  0
VERTEX
  8
0
 10
50.014838
 20
213.500000
 42
0.017214
  0
VERTEX
  8
0
 10
55.634565
 20
198.728874
 42
0.010966
  0
VERTEX
  8
0
 10
63.131296
 20
181.937090
 42
0.010723
  0
VERTEX
  8
0
 10
71.651757
 20
164.880359
 42
0.012940
  0
VERTEX
  8
0
 10
80.402744
 20
149.257709
 42
0.008378
  0
VERTEX
  8
0
 10
87.283599
 20
138.115792
 42
0.007951
  0
VERTEX
  8
0
 10
94.652037
 20
127.012409
 42
0.004947
  0
VERTEX
  8
0
 10
101.482439
 20
117.274592
 42
0.084753
  0
VERTEX
  8
0
 10
104.245409
 20
114.540662
 42
0.199077
  0
VERTEX
  8
0
 10
109.951271
 20
113.276716
 42
0.076914
  0
VERTEX
  8
0
 10
117.771436
 20
115.942604
 42
0.043948
  0
VERTEX
  8
0
 10
128.453955
 20
122.788394
 42
0.012726
  0
VERTEX
  8
0
 10
143.655055
 20
135.161561
 42
0.016198
  0
VERTEX
  8
0
 10
152.649729
 20
143.391723
 42
0.005569
  0
VERTEX
  8
0
 10
165.137361
 20
155.858825
 42
0.004935
  0
VERTEX
  8
0
 10
177.122284
 20
168.337608
 42
0.027417
  0
VERTEX
  8
0
 10
183.110632
 20
175.439673
 42
-0.007858
  0
VERTEX
  8
0
 10
184.454168
 20
177.165740
 42
-0.011770
  0
VERTEX
  8
0
 10
185.685650
 20
178.625811
 42
-0.006806
  0
VERTEX
  8
0
 10
186.753212
 20
179.800106
 42
-0.194731
  0
VERTEX
  8
0
 10
187.117114
 20
179.969079
 42
-0.224291
  0
VERTEX
  8
0
 10
187.464358
 20
179.825849
 42
-0.011258
  0
VERTEX
  8
0
 10
188.291973
 20
178.874178
 42
-0.016277
  0
VERTEX
  8
0
 10
189.241273
 20
177.652839
 42
-0.010892
  0
VERTEX
  8
0
 10
190.250050
 20
176.198335
 42
0.034040
  0
VERTEX
  8
0
 10
204.619410
 20
157.400255
 42
0.016253
  0
VERTEX
  8
0
 10
225.434775
 20
135.199974
 42
0.016123
  0
VERTEX
  8
0
 10
248.541185
 20
113.551381
 42
0.023789
  0
VERTEX
  8
0
 10
270.269936
 20
96.229451
 42
0.000000
  0
VERTEX
  8
0
 10
282.039872
 20
87.729459
 42
0.000000
  0
VERTEX
  8
0
 10
281.269936
 20
84.114730
 42
0.030173
  0
VERTEX
  8
0
 10
280.971822
 20
82.136022
 42
0.007359
  0
VERTEX
  8
0
 10
280.726169
 20
78.844382
 42
0.007516
  0
VERTEX
  8
0
 10
280.556554
 20
75.055929
 42
0.007428
  0
VERTEX
  8
0
 10
280.500000
 20
71.249123
 42
0.000000
  0
VERTEX
  8
0
 10
280.500000
 20
61.998246
 42
0.000000
  0
VERTEX
  8
0
 10
244.000000
 20
61.977161
 42
0.002489
  0
VERTEX
  8
0
 10
217.440759
 20
61.829599
 42
0.032125
  0
VERTEX
  8
0
 10
207.558410
 20
61.089388
 42
0.088808
  0
VERTEX
  8
0
 10
201.773854
 20
59.197176
 42
0.081730
  0
VERTEX
  8
0
 10
196.813618
 20
55.376099
 42
0.119365
  0
VERTEX
  8
0
 10
192.603425
 20
47.914210
 42
0.118321
  0
VERTEX
  8
0
 10
192.255051
 20
39.327231
 42
0.116711
  0
VERTEX
  8
0
 10
195.852796
 20
31.427753
 42
0.113892
  0
VERTEX
  8
0
 10
202.636584
 20
25.894110
 42
0.000000
  0
VERTEX
  8
0
 10
207.500000
 20
23.500000
 42
0.000000
  0
VERTEX
  8
0
 10
251.250471
 20
23.201227
 42
0.000000
  0
VERTEX
  8
0
 10
295.000942
 20
22.902455
 42
0.000000
  0
VERTEX
  8
0
 10
298.606947
 20
17.265361
 42
0.017409
  0
VERTEX
  8
0
 10
300.383792
 20
14.689814
 42
0.008882
  0
VERTEX
  8
0
 10
302.782751
 20
11.576262
 42
0.008814
  0
VERTEX
  8
0
 10
305.372137
 20
8.450851
 42
0.013069
  0
VERTEX
  8
0
 10
307.758696
 20
5.814134
 42
0.000000
  0
VERTEX
  8
0
 10
313.304441
 20
0.000000
 42
0.000000
  0
VERTEX
  8
0
 10
328.089597
 20
0.000000
 42
0.000000
  0
VERTEX
  8
0
 10
342.874753
 20
0.000000
 42
0.000000
  0
VERTEX
  8
0
 10
348.619404
 20
6.750000
 42
0.007881
  0
VERTEX
  8
0
 10
351.036267
 20
9.682236
 42
0.006314
  0
VERTEX
  8
0
 10
353.548252
 20
12.912500
 42
0.006387
  0
VERTEX
  8
0
 10
355.796158
 20
15.959850
 42
0.016096
  0
VERTEX
  8
0
 10
357.331504
 20
18.250000
 42
0.000000
  0
VERTEX
  8
0
 10
360.298951
 20
23.000000
 42
0.000000
  0
VERTEX
  8
0
 10
367.623796
 20
23.000000
 42
-0.007077
  0
VERTEX
  8
0
 10
372.375536
 20
22.932737
 42
-0.079837
  0
VERTEX
  8
0
 10
374.220971
 20
22.582328
 42
-0.147339
  0
VERTEX
  8
0
 10
375.394302
 20
21.709542
 42
-0.041470
  0
VERTEX
  8
0
 10
376.611335
 20
19.750000
 42
0.028565
  0
VERTEX
  8
0
 10
378.587565
 20
16.377098
 42
0.015567
  0
VERTEX
  8
0
 10
381.369817
 20
12.465385
 42
0.014471
  0
VERTEX
  8
0
 10
384.703763
 20
8.328355
 42
0.013117
  0
VERTEX
  8
0
 10
388.379254
 20
4.250000
 42
0.000000
  0
VERTEX
  8
0
 10
392.416416
 20
0.000000
 42
0.000000
  0
VERTEX
  8
0
 10
407.107865
 20
0.000000
 42
0.000000
  0
VERTEX
  8
0
 10
421.799315
 20
0.000000
 42
0.000000
  0
VERTEX
  8
0
 10
426.967622
 20
5.654951
 42
0.010619
  0
VERTEX
  8
0
 10
429.235148
 20
8.244324
 42
0.006642
  0
VERTEX
  8
0
 10
431.783719
 20
11.365743
 42
0.006665
  0
VERTEX
  8
0
 10
434.213599
 20
14.508960
 42
0.012054
  0
VERTEX
  8
0
 10
436.105225
 20
17.154951
 42
0.000000
  0
VERTEX
  8
0
 10
440.074522
 20
23.000000
 42
0.000000
  0
VERTEX
  8
0
 10
468.449483
 20
23.000000
 42
0.000000
  0
VERTEX
  8
0
 10
496.824445
 20
23.000000
 42
0.000000
  0
VERTEX
  8
0
 10
501.327596
 20
16.750000
 42
0.010762
  0
VERTEX
  8
0
 10
503.418611
 20
13.975739
 42
0.006603
  0
VERTEX
  8
0
 10
505.994955
 20
10.793750
 42
0.006619
  0
VERTEX
  8
0
 10
508.629116
 20
7.710739
 42
0.011725
  0
VERTEX
  8
0
 10
510.892906
 20
5.250000
 42
0.000000
  0
VERTEX
  8
0
 10
515.955066
 20
0.000000
 42
0.000000
  0
VERTEX
  8
0
 10
530.893630
 20
-0.000000
 42
0.000000
  0
VERTEX
  8
0
 10
545.832193
 20
-0.000000
 42
0.000000
  0
VERTEX
  8
0
 10
551.166097
 20
5.907479
 42
0.011524
  0
VERTEX
  8
0
 10
553.463822
 20
8.573312
 42
0.007819
  0
VERTEX
  8
0
 10
555.961291
 20
11.708324
 42
0.007881
  0
VERTEX
  8
0
 10
558.279210
 20
14.813173
 42
0.015611
  0
VERTEX
  8
0
 10
560.000000
 20
17.359427
 42
0.000000
  0
VERTEX
  8
0
 10
563.500000
 20
22.903895
 42
0.000000
  0
VERTEX
  8
0
 10
571.001717
 20
22.951948
 42
0.000000
  0
VERTEX
  8
0
 10
578.503434
 20
23.000000
 42
0.000000
  0
VERTEX
  8
0
 10
580.925909
 20
18.433591
 42
0.031154
  0
VERTEX
  8
0
 10
582.290156
 20
16.208623
 42
0.010786
  0
VERTEX
  8
0
 10
584.522492
 20
13.171822
 42
0.010668
  0
VERTEX
  8
0
 10
587.132470
 20
9.923076
 42
0.012196
  0
VERTEX
  8
0
 10
589.767825
 20
6.933591
 42
0.000000
  0
VERTEX
  8
0
 10
596.187268
 20
-0.000000
 42
0.000000
  0
VERTEX
  8
0
 10
610.993291
 20
-0.000000
 42
0.000000
  0
VERTEX
  8
0
 10
625.799315
 20
-0.000000
 42
0.000000
  0
VERTEX
  8
0
 10
630.864132
 20
5.541717
 42
0.013943
  0
VERTEX
  8
0
 10
633.070926
 20
8.095792
 42
0.008673
  0
VERTEX
  8
0
 10
635.521472
 20
11.205800
 42
0.008700
  0
VERTEX
  8
0
 10
637.833910
 20
14.360060
 42
0.015554
  0
VERTEX
  8
0
 10
639.606611
 20
17.041717
 42
0.000000
  0
VERTEX
  8
0
 10
643.284273
 20
23.000000
 42
0.000000
  0
VERTEX
  8
0
 10
684.392136
 20
23.024446
 42
0.002026
  0
VERTEX
  8
0
 10
701.414747
 20
23.103535
 42
0.003619
  0
VERTEX
  8
0
 10
715.408362
 20
23.326562
 42
0.002420
  0
VERTEX
  8
0
 10
726.597422
 20
23.640100
 42
0.048441
  0
VERTEX
  8
0
 10
729.979953
 20
24.081151
 42
0.081692
  0
VERTEX
  8
0
 10
736.047517
 20
26.571612
 42
0.087349
  0
VERTEX
  8
0
 10
740.838284
 20
30.831119
 42
0.087057
  0
VERTEX
  8
0
 10
743.897806
 20
36.483818
 42
0.080473
  0
VERTEX
  8
0
 10
744.961588
 20
43.000000
 42
0.068101
  0
VERTEX
  8
0
 10
744.377493
 20
47.307825
 42
0.061823
  0
VERTEX
  8
0
 10
742.652135
 20
51.455031
 42
0.058793
  0
VERTEX
  8
0
 10
739.865974
 20
55.234990
 42
0.051383
  0
VERTEX
  8
0
 10
736.157103
 20
58.458409
 42
0.000000
  0
VERTEX
  8
0
 10
731.831177
 20
61.500000
 42
0.000000
  0
VERTEX
  8
0
 10
694.111240
 20
61.794281
 42
0.000000
  0
VERTEX
  8
0
 10
656.391304
 20
62.088563
 42
0.000000
  0
VERTEX
  8
0
 10
656.332852
 20
71.794281
 42
0.010058
  0
VERTEX
  8
0
 10
656.230549
 20
75.707373
 42
0.011524
  0
VERTEX
  8
0
 10
655.971525
 20
79.439039
 42
0.010708
  0
VERTEX
  8
0
 10
655.612282
 20
82.583212
 42
0.062505
  0
VERTEX
  8
0
 10
655.184884
 20
84.189681
 42
-0.124081
  0
VERTEX
  8
0
 10
654.935202
 20
85.987842
 42
-0.158778
  0
VERTEX
  8
0
 10
655.618850
 20
87.503006
 42
-0.049054
  0
VERTEX
  8
0
 10
657.771482
 20
89.444934
 42
-0.003506
  0
VERTEX
  8
0
 10
664.293489
 20
94.189681
 42
0.019243
  0
VERTEX
  8
0
 10
687.014858
 20
111.838880
 42
0.018475
  0
VERTEX
  8
0
 10
708.633633
 20
131.414396
 42
0.018800
  0
VERTEX
  8
0
 10
728.352424
 20
152.143784
 42
0.022076
  0
VERTEX
  8
0
 10
745.374107
 20
173.250000
 42
-0.002359
  0
VERTEX
  8
0
 10
747.582844
 20
176.221209
 42
-0.003825
  0
VERTEX
  8
0
 10
749.491448
 20
178.723437
 42
-0.000730
  0
VERTEX
  8
0
 10
751.188216
 20
180.906413
 42
-0.231141
  0
VERTEX
  8
0
 10
751.379845
 20
181.000000
 42
-0.215606
  0
VERTEX
  8
0
 10
751.577502
 20
180.910613
 42
-0.000607
  0
VERTEX
  8
0
 10
753.534003
 20
178.680610
 42
-0.003403
  0
VERTEX
  8
0
 10
755.734715
 20
176.131306
 42
-0.002099
  0
VERTEX
  8
0
 10
758.290303
 20
173.104203
 42
0.016394
  0
VERTEX
  8
0
 10
772.312479
 20
157.426850
 42
0.017667
  0
VERTEX
  8
0
 10
786.998148
 20
143.102140
 42
0.017757
  0
VERTEX
  8
0
 10
802.586431
 20
129.915807
 42
0.016937
  0
VERTEX
  8
0
 10
819.313208
 20
117.649831
 42
0.031333
  0
VERTEX
  8
0
 10
825.004409
 20
114.267535
 42
0.090619
  0
VERTEX
  8
0
 10
829.376238
 20
112.949445
 42
0.130437
  0
VERTEX
  8
0
 10
832.971451
 20
113.482972
 42
0.103667
  0
VERTEX
  8
0
 10
836.192178
 20
115.750000
 42
0.034180
  0
VERTEX
  8
0
 10
840.196018
 20
120.675594
 42
0.007374
  0
VERTEX
  8
0
 10
846.396964
 20
129.750111
 42
0.007801
  0
VERTEX
  8
0
 10
853.150774
 20
140.307792
 42
0.008210
  0
VERTEX
  8
0
 10
859.454888
 20
150.894526
 42
0.008561
  0
VERTEX
  8
0
 10
866.400919
 20
163.502745
 42
0.011089
  0
VERTEX
  8
0
 10
872.312285
 20
175.307804
 42
0.010728
  0
VERTEX
  8
0
 10
877.843140
 20
187.672524
 42
0.007237
  0
VERTEX
  8
0
 10
883.643642
 20
201.999863
 42
-0.000365
  0
VERTEX
  8
0
 10
886.162956
 20
208.477111
 42
-0.000505
  0
VERTEX
  8
0
 10
888.433456
 20
214.284689
 42
-0.000314
  0
VERTEX
  8
0
 10
890.352034
 20
219.168500
 42
-0.006289
  0
VERTEX
  8
0
 10
890.956794
 20
220.650143
 42
-0.052144
  0
VERTEX
  8
0
 10
891.637775
 20
221.884032
 42
-0.220597
  0
VERTEX
  8
0
 10
892.348533
 20
222.298630
 42
-0.102603
  0
VERTEX
  8
0
 10
893.469154
 20
222.174105
 42
-0.007511
  0
VERTEX
  8
0
 10
896.416680
 20
221.163916
 42
0.014416
  0
VERTEX
  8
0
 10
899.230039
 20
220.242921
 42
0.079190
  0
VERTEX
  8
0
 10
900.809014
 20
220.037311
 42
0.092921
  0
VERTEX
  8
0
 10
902.256724
 20
220.351741
 42
0.023709
  0
VERTEX
  8
0
 10
904.430938
 20
221.392874
 42
0.089081
  0
VERTEX
  8
0
 10
907.390816
 20
223.746009
 42
0.077516
  0
VERTEX
  8
0
 10
909.519465
 20
227.091325
 42
0.040832
  0
VERTEX
  8
0
 10
911.408778
 20
232.600929
 42
0.007525
  0
VERTEX
  8
0
 10
913.897686
 20
243.057380
 42
0.012075
  0
VERTEX
  8
0
 10
918.903324
 20
268.470858
 42
0.010143
  0
VERTEX
  8
0
 10
923.007244
 20
295.616658
 42
0.010162
  0
VERTEX
  8
0
 10
925.998826
 20
322.843663
 42
0.012284
  0
VERTEX
  8
0
 10
927.657165
 20
348.500000
 42
0.021984
  0
VERTEX
  8
0
 10
927.590915
 20
365.144771
 42
0.009534
  0
VERTEX
  8
0
 10
926.108161
 20
387.239428
 42
0.009444
  0
VERTEX
  8
0
 10
923.647671
 20
410.594363
 42
0.012831
  0
VERTEX
  8
0
 10
920.490473
 20
431.553388
 42
0.018609
  0
VERTEX
  8
0
 10
911.855938
 20
471.594953
 42
0.025046
  0
VERTEX
  8
0
 10
900.908429
 20
507.025086
 42
0.025909
  0
VERTEX
  8
0
 10
886.812991
 20
540.218461
 42
0.022357
  0
VERTEX
  8
0
 10
868.713930
 20
573.500000
 42
0.015714
  0
VERTEX
  8
0
 10
860.969193
 20
585.471490
 42
0.007065
  0
VERTEX
  8
0
 10
850.092207
 20
600.714699
 42
0.005991
  0
VERTEX
  8
0
 10
839.257931
 20
615.088998
 42
0.036402
  0
VERTEX
  8
0
 10
833.043501
 20
622.024269
 42
-0.010892
  0
VERTEX
  8
0
 10
832.679924
 20
622.390601
 42
-0.000559
  0
VERTEX
  8
0
 10
831.530329
 20
623.603221
 42
-0.000890
  0
VERTEX
  8
0
 10
830.167766
 20
625.048849
 42
-0.000645
  0
VERTEX
  8
0
 10
828.655493
 20
626.663216
 42
0.000000
  0
VERTEX
  8
0
 10
824.810986
 20
630.777893
 42
0.000000
  0
VERTEX
  8
0
 10
827.451322
 20
638.638947
 42
0.016319
  0
VERTEX
  8
0
 10
831.389204
 20
651.767883
 42
0.005056
  0
VERTEX
  8
0
 10
836.464592
 20
671.756982
 42
0.002964
  0
VERTEX
  8
0
 10
841.267057
 20
692.028985
 42
0.056732
  0
VERTEX
  8
0
 10
842.000000
 20
698.467900
 42
-0.330490
  0
VERTEX
  8
0
 10
842.130111
 20
698.643246
 42
-0.004204
  0
VERTEX
  8
0
 10
843.535524
 20
699.055961
 42
-0.010214
  0
VERTEX
  8
0
 10
845.223251
 20
699.499147
 42
-0.006277
  0
VERTEX
  8
0
 10
847.227317
 20
699.955331
 42
0.106954
  0
VERTEX
  8
0
 10
858.752737
 20
705.162637
 42
0.096568
  0
VERTEX
  8
0
 10
867.594494
 20
714.830393
 42
0.071982
  0
VERTEX
  8
0
 10
873.947225
 20
729.667541
 42
0.032596
  0
VERTEX
  8
0
 10
878.066728
 20
750.452263
 42
0.031134
  0
VERTEX
  8
0
 10
878.898587
 20
762.622248
 42
0.007277
  0
VERTEX
  8
0
 10
878.723573
 20
783.082507
 42
0.007550
  0
VERTEX
  8
0
 10
877.936643
 20
803.669611
 42
0.026273
  0
VERTEX
  8
0
 10
876.531023
 20
816.900857
 42
0.012747
  0
VERTEX
  8
0
 10
874.446586
 20
828.109682
 42
0.012533
  0
VERTEX
  8
0
 10
871.783371
 20
839.261680
 42
0.013075
  0
VERTEX
  8
0
 10
868.888705
 20
849.118788
 42
0.032661
  0
VERTEX
  8
0
 10
866.126746
 20
856.092867
 42
0.041235
  0
VERTEX
  8
0
 10
863.367409
 20
860.858908
 42
0.024754
  0
VERTEX
  8
0
 10
859.372879
 20
866.040757
 42
0.024609
  0
VERTEX
  8
0
 10
855.080347
 20
870.598591
 42
0.064075
  0
VERTEX
  8
0
 10
851.468535
 20
873.277547
 42
0.056457
  0
VERTEX
  8
0
 10
850.476937
 20
873.693766
 42
0.013557
  0
VERTEX
  8
0
 10
848.749022
 20
874.148817
 42
0.013753
  0
VERTEX
  8
0
 10
846.724652
 20
874.565269
 42
0.013241
  0
VERTEX
  8
0
 10
844.654716
 20
874.875788
 42
-0.016905
  0
VERTEX
  8
0
 10
841.559917
 20
875.363261
 42
-0.107043
  0
VERTEX
  8
0
 10
840.102133
 20
875.985299
 42
-0.125477
  0
VERTEX
  8
0
 10
839.143915
 20
877.112457
 42
-0.026738
  0
VERTEX
  8
0
 10
838.130393
 20
879.500000
 42
0.019962
  0
VERTEX
  8
0
 10
826.977463
 20
906.794860
 42
0.019931
  0
VERTEX
  8
0
 10
813.677946
 20
933.127887
 42
0.019789
  0
VERTEX
  8
0
 10
798.224676
 20
958.497094
 42
0.019034
  0
VERTEX
  8
0
 10
780.623280
 20
982.906220
 42
0.018028
  0
VERTEX
  8
0
 10
771.415910
 20
993.862856
 42
0.007780
  0
VERTEX
  8
0
 10
758.408682
 20
1007.811837
 42
0.007822
  0
VERTEX
  8
0
 10
744.765545
 20
1021.556784
 42
0.015324
  0
VERTEX
  8
0
 10
733.407556
 20
1031.986643
 42
0.029614
  0
VERTEX
  8
0
 10
698.826301
 20
1058.437802
 42
0.030365
  0
VERTEX
  8
0
 10
661.641337
 20
1080.377528
 42
0.030071
  0
VERTEX
  8
0
 10
621.723898
 20
1097.831945
 42
0.027862
  0
VERTEX
  8
0
 10
578.980085
 20
1110.884731
 42
0.012021
  0
VERTEX
  8
0
 10
556.393582
 20
1115.855616
 42
0.028229
  0
VERTEX
  8
0
 10
539.285786
 20
1118.199248
 42
0.016847
  0
VERTEX
  8
0
 10
517.524787
 20
1119.201168
 42
0.002079
  0
VERTEX
  8
0
 10
470.000000
 20
1119.588993
 42
0.000603
  0
VERTEX
  8
0
 10
428.226122
 20
1119.705798
 42
0.007008
  0
VERTEX
  8
0
 10
411.878013
 20
1119.502631
 42
0.016813
  0
VERTEX
  8
0
 10
401.125840
 20
1118.856004
 42
0.014218
  0
SEQEND
  0
POLYLINE
  8
0
 66
1
 70
1
  0
VERTEX
  8
0
 10
462.405587
 20
1080.961407
 42
0.019612
  0
VERTEX
  8
0
 10
465.532714
 20
1080.494373
 42
0.027453
  0
VERTEX
  8
0
 10
468.353176
 20
1080.341521
 42
0.027127
  0
VERTEX
  8
0
 10
471.199143
 20
1080.498182
 42
0.018500
  0
VERTEX
  8
0
 10
474.405587
 20
1080.970423
 42
-0.028494
  0
VERTEX
  8
0
 10
483.407290
 20
1082.112980
 42
-0.011250
  0
VERTEX
  8
0
 10
495.881801
 20
1082.696954
 42
-0.011336
  0
VERTEX
  8
0
 10
508.925237
 20
1082.717933
 42
-0.018346
  0
VERTEX
  8
0
 10
520.000000
 20
1082.077643
 42
-0.020462
  0
VERTEX
  8
0
 10
553.223451
 20
1077.552956
 42
-0.025680
  0
VERTEX
  8
0
 10
583.498273
 20
1070.540191
 42
-0.025926
  0
VERTEX
  8
0
 10
612.657139
 20
1060.526123
 42
-0.021560
  0
VERTEX
  8
0
 10
642.520823
 20
1046.982760
 42
-0.017022
  0
VERTEX
  8
0
 10
666.030142
 20
1034.050272
 42
-0.022833
  0
VERTEX
  8
0
 10
686.336570
 20
1020.669976
 42
-0.023019
  0
VERTEX
  8
0
 10
705.210373
 20
1005.584289
 42
-0.017755
  0
VERTEX
  8
0
 10
724.388721
 20
987.507213
 42
-0.021605
  0
VERTEX
  8
0
 10
745.462421
 20
964.252590
 42
-0.023400
  0
VERTEX
  8
0
 10
763.863934
 20
939.856886
 42
-0.023829
  0
VERTEX
  8
0
 10
779.607376
 20
914.282305
 42
-0.024332
  0
VERTEX
  8
0
 10
792.726899
 20
887.500000
 42
-0.009540
  0
VERTEX
  8
0
 10
796.406147
 20
878.492123
 42
-0.005231
  0
VERTEX
  8
0
 10
800.585224
 20
867.329439
 42
-0.002171
  0
VERTEX
  8
0
 10
804.559716
 20
856.214852
 42
-0.084974
  0
VERTEX
  8
0
 10
805.000000
 20
853.642859
 42
-0.220643
  0
VERTEX
  8
0
 10
804.473728
 20
852.508332
 42
-0.086129
  0
VERTEX
  8
0
 10
802.947116
 20
851.613232
 42
-0.054546
  0
VERTEX
  8
0
 10
800.463344
 20
850.980367
 42
-0.022750
  0
VERTEX
  8
0
 10
797.017010
 20
850.651927
 42
-0.090234
  0
VERTEX
  8
0
 10
795.122721
 20
850.900466
 42
-0.168670
  0
VERTEX
  8
0
 10
793.901035
 20
851.818895
 42
-0.059484
  0
VERTEX
  8
0
 10
792.790489
 20
853.988256
 42
-0.004297
  0
VERTEX
  8
0
 10
790.502733
 20
860.339882
 42
0.041407
  0
VERTEX
  8
0
 10
774.588538
 20
895.986534
 42
0.040496
  0
VERTEX
  8
0
 10
752.916258
 20
928.806704
 42
0.041385
  0
VERTEX
  8
0
 10
726.773231
 20
957.023087
 42
0.048226
  0
VERTEX
  8
0
 10
697.562065
 20
978.973474
 42
0.031691
  0
VERTEX
  8
0
 10
672.986421
 20
991.914441
 42
0.036765
  0
VERTEX
  8
0
 10
648.142014
 20
1000.922185
 42
0.036753
  0
VERTEX
  8
0
 10
622.239142
 20
1006.196059
 42
0.031633
  0
VERTEX
  8
0
 10
594.500000
 20
1007.977659
 42
0.030946
  0
VERTEX
  8
0
 10
570.979019
 20
1006.541620
 42
0.031853
  0
VERTEX
  8
0
 10
548.045723
 20
1002.213476
 42
0.032213
  0
VERTEX
  8
0
 10
526.093582
 20
995.069576
 42
0.033333
  0
VERTEX
  8
0
 10
505.500000
 20
985.231582
 42
0.011022
  0
VERTEX
  8
0
 10
497.168031
 20
980.300922
 42
0.008550
  0
VERTEX
  8
0
 10
488.314901
 20
974.582624
 42
0.008662
  0
VERTEX
  8
0
 10
480.232474
 20
968.958707
 42
0.020443
  0
VERTEX
  8
0
 10
474.461593
 20
964.423038
 42
-0.006412
  0
VERTEX
  8
0
 10
472.425481
 20
962.728215
 42
-0.009483
  0
VERTEX
  8
0
 10
470.593346
 20
961.299267
 42
-0.005240
  0
VERTEX
  8
0
 10
469.024666
 20
960.148437
 42
-0.156884
  0
VERTEX
  8
0
 10
468.563231
 20
960.000000
 42
-0.160646
  0
VERTEX
  8
0
 10
468.097545
 20
960.153584
 42
-0.004506
  0
VERTEX
  8
0
 10
466.388056
 20
961.442790
 42
-0.008781
  0
VERTEX
  8
0
 10
464.396472
 20
963.029472
 42
-0.005870
  0
VERTEX
  8
0
 10
462.171045
 20
964.911626
 42
0.022669
  0
VERTEX
  8
0
 10
454.500255
 20
970.969277
 42
0.013468
  0
VERTEX
  8
0
 10
444.861142
 20
977.509645
 42
0.013174
  0
VERTEX
  8
0
 10
434.478796
 20
983.773903
 42
0.016390
  0
VERTEX
  8
0
 10
424.500000
 20
989.016745
 42
0.028498
  0
VERTEX
  8
0
 10
404.604878
 20
997.287952
 42
0.028515
  0
VERTEX
  8
0
 10
383.902308
 20
1003.241227
 42
0.028299
  0
VERTEX
  8
0
 10
362.503329
 20
1006.835468
 42
0.027119
  0
VERTEX
  8
0
 10
340.527639
 20
1008.058623
 42
0.030344
  0
VERTEX
  8
0
 10
316.808980
 20
1006.650632
 42
0.030409
  0
VERTEX
  8
0
 10
293.452449
 20
1002.382070
 42
0.030995
  0
VERTEX
  8
0
 10
271.232178
 20
995.422440
 42
0.034744
  0
VERTEX
  8
0
 10
250.907273
 20
985.978644
 42
0.037171
  0
VERTEX
  8
0
 10
221.768530
 20
966.940665
 42
0.039200
  0
VERTEX
  8
0
 10
196.320955
 20
944.102990
 42
0.039182
  0
VERTEX
  8
0
 10
174.739576
 20
917.562883
 42
0.037066
  0
VERTEX
  8
0
 10
157.113407
 20
887.500000
 42
0.010567
  0
VERTEX
  8
0
 10
152.770739
 20
878.156112
 42
0.009075
  0
VERTEX
  8
0
 10
148.591353
 20
868.153420
 42
0.008789
  0
VERTEX
  8
0
 10
145.171376
 20
859.068919
 42
0.033590
  0
VERTEX
  8
0
 10
143.527568
 20
853.250000
 42
-0.090906
  0
VERTEX
  8
0
 10
142.655655
 20
851.125689
 42
-0.199887
  0
VERTEX
  8
0
 10
141.238295
 20
850.144677
 42
-0.117109
  0
VERTEX
  8
0
 10
138.943426
 20
850.195853
 42
-0.023326
  0
VERTEX
  8
0
 10
135.000000
 20
851.424759
 42
-0.110919
  0
VERTEX
  8
0
 10
132.683841
 20
852.908279
 42
-0.216215
  0
VERTEX
  8
0
 10
131.937997
 20
854.924476
 42
-0.065496
  0
VERTEX
  8
0
 10
132.683119
 20
858.556145
 42
-0.004458
  0
VERTEX
  8
0
 10
136.223987
 20
868.500000
 42
-0.004165
  0
VERTEX
  8
0
 10
140.185489
 20
879.045977
 42
-0.011746
  0
VERTEX
  8
0
 10
143.187174
 20
886.324490
 42
-0.010540
  0
VERTEX
  8
0
 10
146.700819
 20
893.871534
 42
-0.002828
  0
VERTEX
  8
0
 10
152.602529
 20
905.710140
 42
-0.016568
  0
VERTEX
  8
0
 10
163.289368
 20
925.214441
 42
-0.019710
  0
VERTEX
  8
0
 10
174.681309
 20
942.839926
 42
-0.018770
  0
VERTEX
  8
0
 10
187.900047
 20
960.201536
 42
-0.012827
  0
VERTEX
  8
0
 10
204.134491
 20
978.939643
 42
-0.003215
  0
VERTEX
  8
0
 10
208.069882
 20
983.197898
 42
-0.003565
  0
VERTEX
  8
0
 10
211.927469
 20
987.260037
 42
-0.003306
  0
VERTEX
  8
0
 10
215.265882
 20
990.680092
 42
-0.018427
  0
VERTEX
  8
0
 10
217.134491
 20
992.434950
 42
0.003629
  0
VERTEX
  8
0
 10
218.888570
 20
993.987181
 42
0.001057
  0
VERTEX
  8
0
 10
221.567632
 20
996.403100
 42
0.001062
  0
VERTEX
  8
0
 10
224.573173
 20
999.136607
 42
0.001136
  0
VERTEX
  8
0
 10
227.500000
 20
1001.822127
 42
-0.032216
  0
VERTEX
  8
0
 10
251.077989
 20
1020.900076
 42
-0.024256
  0
VERTEX
  8
0
 10
279.208138
 20
1038.826741
 42
-0.023739
  0
VERTEX
  8
0
 10
309.726484
 20
1054.383103
 42
-0.026496
  0
VERTEX
  8
0
 10
340.500000
 20
1066.353047
 42
-0.012419
  0
VERTEX
  8
0
 10
360.778640
 20
1072.473975
 42
-0.017886
  0
VERTEX
  8
0
 10
379.018315
 20
1076.793552
 42
-0.017143
  0
VERTEX
  8
0
 10
398.093572
 20
1079.920618
 42
-0.010178
  0
VERTEX
  8
0
 10
421.000000
 20
1082.400694
 42
-0.025034
  0
VERTEX
  8
0
 10
428.849818
 20
1082.694704
 42
-0.005532
  0
VERTEX
  8
0
 10
442.315158
 20
1082.375739
 42
-0.005036
  0
VERTEX
  8
0
 10
455.733430
 20
1081.773938
 42
-0.033157
  0
SEQEND
  0
POLYLINE
  8
0
 66
1
 70
1
  0
VERTEX
  8
0
 10
371.500000
 20
972.992291
 42
-0.024055
  0
VERTEX
  8
0
 10
387.258650
 20
968.936019
 42
-0.022782
  0
VERTEX
  8
0
 10
402.849556
 20
963.322732
 42
-0.022997
  0
VERTEX
  8
0
 10
417.711044
 20
956.378272
 42
-0.025841
  0
VERTEX
  8
0
 10
431.285336
 20
948.337318
 42
-0.015267
  0
VERTEX
  8
0
 10
438.904905
 20
942.932177
 42
-0.017266
  0
VERTEX
  8
0
 10
445.865207
 20
937.279999
 42
-0.016400
  0
VERTEX
  8
0
 10
452.712257
 20
930.909285
 42
-0.011552
  0
VERTEX
  8
0
 10
460.000000
 20
923.325890
 42
0.003010
  0
VERTEX
  8
0
 10
462.914867
 20
920.187169
 42
0.004735
  0
VERTEX
  8
0
 10
465.459699
 20
917.530632
 42
0.001398
  0
VERTEX
  8
0
 10
467.691367
 20
915.257485
 42
0.165420
  0
VERTEX
  8
0
 10
468.054293
 20
915.075890
 42
0.225599
  0
VERTEX
  8
0
 10
468.434135
 20
915.196602
 42
0.000694
  0
VERTEX
  8
0
 10
472.248564
 20
918.770532
 42
0.003699
  0
VERTEX
  8
0
 10
476.551227
 20
922.873500
 42
0.002282
  0
VERTEX
  8
0
 10
481.554293
 20
927.759962
 42
-0.008922
  0
VERTEX
  8
0
 10
487.206460
 20
933.135610
 42
-0.007106
  0
VERTEX
  8
0
 10
493.487824
 20
938.737408
 42
-0.007192
  0
VERTEX
  8
0
 10
499.456457
 20
943.761424
 42
-0.017907
  0
VERTEX
  8
0
 10
504.000000
 20
947.211745
 42
-0.028253
  0
VERTEX
  8
0
 10
517.916979
 20
955.882480
 42
-0.023824
  0
VERTEX
  8
0
 10
533.524947
 20
963.480857
 42
-0.023843
  0
VERTEX
  8
0
 10
549.770034
 20
969.553641
 42
-0.028446
  0
VERTEX
  8
0
 10
565.597492
 20
973.648794
 42
-0.019441
  0
VERTEX
  8
0
 10
570.929347
 20
974.495200
 42
-0.013999
  0
VERTEX
  8
0
 10
576.931015
 20
975.040197
 42
-0.010667
  0
VERTEX
  8
0
 10
584.415130
 20
975.348942
 42
-0.004472
  0
VERTEX
  8
0
 10
594.500000
 20
975.459401
 42
-0.004054
  0
VERTEX
  8
0
 10
605.850963
 20
975.390156
 42
-0.015009
  0
VERTEX
  8
0
 10
613.005584
 20
975.073536
 42
-0.020062
  0
VERTEX
  8
0
 10
619.014814
 20
974.383309
 42
-0.012464
  0
VERTEX
  8
0
 10
626.000000
 20
973.116510
 42
-0.055896
  0
VERTEX
  8
0
 10
662.937363
 20
961.039368
 42
-0.057865
  0
VERTEX
  8
0
 10
695.817765
 20
941.182920
 42
-0.056668
  0
VERTEX
  8
0
 10
723.835045
 20
913.901188
 42
-0.049900
  0
VERTEX
  8
0
 10
746.400206
 20
879.888845
 42
-0.015648
  0
VERTEX
  8
0
 10
750.921543
 20
870.641506
 42
-0.008383
  0
VERTEX
  8
0
 10
755.950114
 20
858.966411
 42
-0.002970
  0
VERTEX
  8
0
 10
760.726956
 20
847.143935
 42
-0.176757
  0
VERTEX
  8
0
 10
760.790908
 20
844.872724
 42
-0.548459
  0
VERTEX
  8
0
 10
760.443164
 20
844.785511
 42
-0.016450
  0
VERTEX
  8
0
 10
759.177137
 20
846.064489
 42
-0.018552
  0
VERTEX
  8
0
 10
757.585834
 20
847.914681
 42
-0.009967
  0
VERTEX
  8
0
 10
755.755826
 20
850.305621
 42
0.038755
  0
VERTEX
  8
0
 10
746.639807
 20
860.893956
 42
0.022277
  0
VERTEX
  8
0
 10
734.175234
 20
872.228718
 42
0.022195
  0
VERTEX
  8
0
 10
720.607409
 20
882.522325
 42
0.035309
  0
VERTEX
  8
0
 10
708.070592
 20
889.936420
 42
0.021003
  0
VERTEX
  8
0
 10
697.376513
 20
894.731006
 42
0.020066
  0
VERTEX
  8
0
 10
686.155518
 20
898.692023
 42
0.019097
  0
VERTEX
  8
0
 10
674.125423
 20
901.905541
 42
0.015432
  0
VERTEX
  8
0
 10
661.000000
 20
904.456746
 42
0.039999
  0
VERTEX
  8
0
 10
641.173459
 20
906.069436
 42
0.000265
  0
VERTEX
  8
0
 10
467.271850
 20
906.187224
 42
0.000284
  0
VERTEX
  8
0
 10
293.968567
 20
906.114447
 42
0.037129
  0
VERTEX
  8
0
 10
272.732188
 20
904.514188
 42
0.029880
  0
VERTEX
  8
0
 10
253.250782
 20
900.378573
 42
0.031934
  0
VERTEX
  8
0
 10
234.841628
 20
894.015971
 42
0.032879
  0
VERTEX
  8
0
 10
217.900352
 20
885.572811
 42
0.036341
  0
VERTEX
  8
0
 10
202.800467
 20
875.226149
 42
0.020608
  0
VERTEX
  8
0
 10
197.275929
 20
870.433336
 42
0.009778
  0
VERTEX
  8
0
 10
190.545029
 20
863.836220
 42
0.009741
  0
VERTEX
  8
0
 10
184.129368
 20
857.037235
 42
0.022538
  0
VERTEX
  8
0
 10
179.652321
 20
851.633104
 42
-0.011838
  0
VERTEX
  8
0
 10
178.529821
 20
850.217583
 42
-0.020049
  0
VERTEX
  8
0
 10
177.516300
 20
849.094627
 42
-0.015305
  0
VERTEX
  8
0
 10
176.669004
 20
848.279784
 42
-0.399606
  0
VERTEX
  8
0
 10
176.379628
 20
848.287039
 42
-0.292663
  0
VERTEX
  8
0
 10
176.096846
 20
849.575945
 42
-0.002823
  0
VERTEX
  8
0
 10
179.614350
 20
858.946709
 42
-0.009500
  0
VERTEX
  8
0
 10
183.412293
 20
868.353221
 42
-0.014082
  0
VERTEX
  8
0
 10
187.125483
 20
876.430396
 42
-0.024286
  0
VERTEX
  8
0
 10
195.027332
 20
890.636039
 42
-0.023363
  0
VERTEX
  8
0
 10
204.364768
 20
904.199750
 42
-0.022064
  0
VERTEX
  8
0
 10
215.449071
 20
917.527790
 42
-0.017178
  0
VERTEX
  8
0
 10
228.600434
 20
931.030461
 42
-0.013623
  0
VERTEX
  8
0
 10
236.173562
 20
937.903577
 42
-0.018731
  0
VERTEX
  8
0
 10
243.366099
 20
943.628608
 42
-0.018041
  0
VERTEX
  8
0
 10
251.175135
 20
948.956648
 42
-0.011364
  0
VERTEX
  8
0
 10
260.646942
 20
954.633508
 42
-0.023636
  0
VERTEX
  8
0
 10
273.626205
 20
961.225653
 42
-0.020331
  0
VERTEX
  8
0
 10
287.831559
 20
966.932873
 42
-0.020772
  0
VERTEX
  8
0
 10
302.037580
 20
971.324722
 42
-0.029460
  0
VERTEX
  8
0
 10
315.000000
 20
973.944132
 42
-0.000050
  0
VERTEX
  8
0
 10
318.091406
 20
974.381004
 42
-0.000050
  0
VERTEX
  8
0
 10
321.178125
 20
974.816584
 42
-0.000049
  0
VERTEX
  8
0
 10
323.869873
 20
975.195883
 42
-0.000202
  0
VERTEX
  8
0
 10
325.500000
 20
975.424754
 42
-0.040183
  0
VERTEX
  8
0
 10
333.432995
 20
975.891455
 42
-0.007818
  0
VERTEX
  8
0
 10
347.768973
 20
975.357973
 42
-0.008445
  0
VERTEX
  8
0
 10
362.228779
 20
974.348199
 42
-0.029313
  0
SEQEND
  0
POLYLINE
  8
0
 66
1
 70
1
  0
VERTEX
  8
0
 10
454.914047
 20
831.250000
 42
-0.004995
  0
VERTEX
  8
0
 10
454.843411
 20
828.417890
 42
-0.056604
  0
VERTEX
  8
0
 10
454.678343
 20
827.310815
 42
-0.650271
  0
VERTEX
  8
0
 10
454.414579
 20
827.269178
 42
-0.069961
  0
VERTEX
  8
0
 10
454.056516
 20
828.040663
 42
-0.065681
  0
VERTEX
  8
0
 10
453.693991
 20
830.235881
 42
-0.023649
  0
VERTEX
  8
0
 10
453.740931
 20
833.407607
 42
-0.015187
  0
VERTEX
  8
0
 10
454.025860
 20
836.480446
 42
-0.378677
  0
VERTEX
  8
0
 10
454.613499
 20
837.000000
 42
-0.393961
  0
VERTEX
  8
0
 10
454.766904
 20
836.856922
 42
-0.004354
  0
VERTEX
  8
0
 10
454.861217
 20
835.310938
 42
-0.010492
  0
VERTEX
  8
0
 10
454.919220
 20
833.454770
 42
-0.006301
  0
SEQEND
  0
POLYLINE
  8
0
 66
1
 70
1
  0
VERTEX
  8
0
 10
481.546231
 20
829.585955
 42
-0.019916
  0
VERTEX
  8
0
 10
481.854950
 20
828.748649
 42
-0.136630
  0
VERTEX
  8
0
 10
481.873139
 20
828.314131
 42
-0.400220
  0
VERTEX
  8
0
 10
481.671287
 20
828.181981
 42
-0.093230
  0
VERTEX
  8
0
 10
481.255349
 20
828.342186
 42
0.107567
  0
VERTEX
  8
0
 10
480.806522
 20
828.500580
 42
0.122644
  0
VERTEX
  8
0
 10
480.355073
 20
828.446550
 42
0.118768
  0
VERTEX
  8
0
 10
479.971138
 20
828.184105
 42
0.096712
  0
VERTEX
  8
0
 10
479.713533
 20
827.756231
 42
-0.454032
  0
VERTEX
  8
0
 10
479.469744
 20
827.661874
 42
-0.161261
  0
VERTEX
  8
0
 10
479.173787
 20
827.968368
 42
-0.046566
  0
VERTEX
  8
0
 10
478.833437
 20
828.886272
 42
-0.016830
  0
VERTEX
  8
0
 10
478.518245
 20
830.242470
 42
-0.039124
  0
VERTEX
  8
0
 10
478.138766
 20
833.485355
 42
-0.094445
  0
VERTEX
  8
0
 10
478.498262
 20
835.863174
 42
-0.575504
  0
VERTEX
  8
0
 10
479.238385
 20
836.003970
 42
-0.118998
  0
VERTEX
  8
0
 10
480.016548
 20
834.500000
 42
0.008626
  0
VERTEX
  8
0
 10
480.356404
 20
833.211270
 42
0.006672
  0
VERTEX
  8
0
 10
480.769507
 20
831.818999
 42
0.006751
  0
VERTEX
  8
0
 10
481.190179
 20
830.529240
 42
0.016071
  0
SEQEND
  0
POLYLINE
  8
0
 66
1
 70
1
  0
VERTEX
  8
0
 10
451.662281
 20
831.750000
 42
-0.174857
  0
VERTEX
  8
0
 10
451.474999
 20
831.540618
 42
-0.447206
  0
VERTEX
  8
0
 10
451.306058
 20
831.601562
 42
-0.078554
  0
VERTEX
  8
0
 10
451.189089
 20
832.108560
 42
-0.017491
  0
VERTEX
  8
0
 10
451.157895
 20
833.000000
 42
-0.017491
  0
VERTEX
  8
0
 10
451.189089
 20
833.891440
 42
-0.078554
  0
VERTEX
  8
0
 10
451.306058
 20
834.398438
 42
-0.447206
  0
VERTEX
  8
0
 10
451.474999
 20
834.459382
 42
-0.174857
  0
VERTEX
  8
0
 10
451.662281
 20
834.250000
 42
-0.057986
  0
VERTEX
  8
0
 10
451.818615
 20
833.679992
 42
-0.037979
  0
VERTEX
  8
0
 10
451.870340
 20
833.000000
 42
-0.037979
  0
VERTEX
  8
0
 10
451.818615
 20
832.320008
 42
-0.057986
  0
SEQEND
  0
POLYLINE
  8
0
 66
1
 70
1
  0
VERTEX
  8
0
 10
450.683114
 20
827.812500
 42
-0.054073
  0
VERTEX
  8
0
 10
450.461564
 20
827.395823
 42
-0.470617
  0
VERTEX
  8
0
 10
450.279315
 20
827.378580
 42
-0.168741
  0
VERTEX
  8
0
 10
450.137993
 20
827.670344
 42
-0.018894
  0
VERTEX
  8
0
 10
450.078947
 20
828.416667
 42
-0.028489
  0
VERTEX
  8
0
 10
450.089945
 20
829.112848
 42
-0.077125
  0
VERTEX
  8
0
 10
450.200665
 20
829.592839
 42
-0.208169
  0
VERTEX
  8
0
 10
450.385309
 20
829.775380
 42
-0.296942
  0
VERTEX
  8
0
 10
450.604167
 20
829.729167
 42
-0.126455
  0
VERTEX
  8
0
 10
450.797407
 20
829.402231
 42
-0.060344
  0
VERTEX
  8
0
 10
450.876576
 20
828.916927
 42
-0.054150
  0
VERTEX
  8
0
 10
450.839148
 20
828.359369
 42
-0.051402
  0
SEQEND
  0
POLYLINE
  8
0
 66
1
 70
1
  0
VERTEX
  8
0
 10
481.287315
 20
815.109765
 42
0.016540
  0
VERTEX
  8
0
 10
481.585697
 20
812.607736
 42
0.022452
  0
VERTEX
  8
0
 10
482.030170
 20
810.376948
 42
0.020294
  0
VERTEX
  8
0
 10
482.543617
 20
808.605721
 42
0.175388
  0
VERTEX
  8
0
 10
483.046004
 20
807.971568
 42
-0.090706
  0
VERTEX
  8
0
 10
483.455801
 20
807.601506
 42
-0.095591
  0
VERTEX
  8
0
 10
483.698881
 20
807.116728
 42
-0.099639
  0
VERTEX
  8
0
 10
483.738509
 20
806.593298
 42
-0.108047
  0
VERTEX
  8
0
 10
483.569098
 20
806.111803
 42
0.070138
  0
VERTEX
  8
0
 10
483.382382
 20
805.686319
 42
0.145033
  0
VERTEX
  8
0
 10
483.387627
 20
805.326592
 42
0.189804
  0
VERTEX
  8
0
 10
483.578523
 20
805.089453
 42
0.130196
  0
VERTEX
  8
0
 10
483.916232
 20
805.000000
 42
-0.232633
  0
VERTEX
  8
0
 10
484.293398
 20
804.814477
 42
-0.161657
  0
VERTEX
  8
0
 10
484.452686
 20
804.358358
 42
-0.073510
  0
VERTEX
  8
0
 10
484.347662
 20
803.563172
 42
-0.021316
  0
VERTEX
  8
0
 10
483.956602
 20
802.385856
 42
0.012490
  0
VERTEX
  8
0
 10
483.459337
 20
800.972659
 42
0.138360
  0
VERTEX
  8
0
 10
483.436577
 20
800.380090
 42
0.375349
  0
VERTEX
  8
0
 10
483.731928
 20
800.170988
 42
0.066175
  0
VERTEX
  8
0
 10
484.449328
 20
800.342182
 42
-0.121785
  0
VERTEX
  8
0
 10
485.584612
 20
800.483719
 42
-0.188406
  0
VERTEX
  8
0
 10
486.445575
 20
800.023617
 42
-0.263656
  0
VERTEX
  8
0
 10
486.597337
 20
799.242844
 42
-0.175165
  0
VERTEX
  8
0
 10
486.016312
 20
798.510081
 42
0.090006
  0
VERTEX
  8
0
 10
485.627191
 20
798.159670
 42
0.053207
  0
VERTEX
  8
0
 10
485.298542
 20
797.625850
 42
0.050967
  0
VERTEX
  8
0
 10
485.075385
 20
797.002328
 42
0.060536
  0
VERTEX
  8
0
 10
485.000000
 20
796.381966
 42
0.059879
  0
VERTEX
  8
0
 10
485.064299
 20
795.846979
 42
0.128130
  0
VERTEX
  8
0
 10
485.260160
 20
795.483379
 42
0.191397
  0
VERTEX
  8
0
 10
485.549890
 20
795.345703
 42
0.155986
  0
VERTEX
  8
0
 10
485.885651
 20
795.429328
 42
-0.440928
  0
VERTEX
  8
0
 10
486.837339
 20
795.158761
 42
-0.121454
  0
VERTEX
  8
0
 10
487.223484
 20
793.444135
 42
-0.067730
  0
VERTEX
  8
0
 10
486.821545
 20
790.879635
 42
-0.098622
  0
VERTEX
  8
0
 10
485.752912
 20
788.863200
 42
-0.008377
  0
VERTEX
  8
0
 10
485.047928
 20
788.027385
 42
-0.037895
  0
VERTEX
  8
0
 10
484.593627
 20
787.580113
 42
-0.551985
  0
VERTEX
  8
0
 10
484.488950
 20
787.613284
 42
-0.186086
  0
VERTEX
  8
0
 10
484.511658
 20
787.813780
 42
0.178081
  0
VERTEX
  8
0
 10
484.586258
 20
788.392142
 42
0.286000
  0
VERTEX
  8
0
 10
484.247220
 20
788.733957
 42
0.082561
  0
VERTEX
  8
0
 10
483.287020
 20
788.798967
 42
0.012175
  0
VERTEX
  8
0
 10
481.348435
 20
788.562272
 42
-0.009287
  0
VERTEX
  8
0
 10
479.946482
 20
788.382874
 42
-0.029064
  0
VERTEX
  8
0
 10
478.997665
 20
788.334835
 42
-0.172593
  0
VERTEX
  8
0
 10
478.730905
 20
788.432011
 42
-0.550470
  0
VERTEX
  8
0
 10
478.750000
 20
788.581826
 42
0.158060
  0
VERTEX
  8
0
 10
479.941139
 20
789.694032
 42
0.265930
  0
VERTEX
  8
0
 10
479.922928
 20
791.022977
 42
0.194640
  0
VERTEX
  8
0
 10
478.646928
 20
791.998632
 42
0.110526
  0
VERTEX
  8
0
 10
476.675670
 20
792.093644
 42
-0.159347
  0
VERTEX
  8
0
 10
476.420318
 20
792.130682
 42
-0.239106
  0
VERTEX
  8
0
 10
476.288227
 20
792.307606
 42
-0.133084
  0
VERTEX
  8
0
 10
476.317365
 20
792.621058
 42
-0.049107
  0
VERTEX
  8
0
 10
476.514283
 20
793.023110
 42
0.086923
  0
VERTEX
  8
0
 10
476.724357
 20
793.548818
 42
0.046510
  0
VERTEX
  8
0
 10
476.804015
 20
794.245767
 42
0.044437
  0
VERTEX
  8
0
 10
476.753086
 20
794.993952
 42
0.052455
  0
VERTEX
  8
0
 10
476.569666
 20
795.679050
 42
0.061033
  0
VERTEX
  8
0
 10
476.167560
 20
796.435976
 42
0.303881
  0
VERTEX
  8
0
 10
475.741373
 20
796.601539
 42
0.145711
  0
VERTEX
  8
0
 10
475.175494
 20
796.285841
 42
0.014521
  0
VERTEX
  8
0
 10
474.113757
 20
795.131163
 42
-0.019486
  0
VERTEX
  8
0
 10
473.348348
 20
794.315161
 42
-0.024637
  0
VERTEX
  8
0
 10
472.576977
 20
793.626029
 42
-0.023956
  0
VERTEX
  8
0
 10
471.892064
 20
793.124567
 42
-0.147066
  0
VERTEX
  8
0
 10
471.477717
 20
793.000000
 42
-0.455253
  0
VERTEX
  8
0
 10
471.331079
 20
793.168422
 42
-0.086581
  0
VERTEX
  8
0
 10
471.472616
 20
793.609077
 42
-0.043326
  0
VERTEX
  8
0
 10
471.900766
 20
794.276877
 42
-0.019715
  0
VERTEX
  8
0
 10
472.566474
 20
795.073453
 42
0.078195
  0
VERTEX
  8
0
 10
473.460907
 20
796.440165
 42
0.045131
  0
VERTEX
  8
0
 10
474.105330
 20
798.301992
 42
0.032983
  0
VERTEX
  8
0
 10
474.555709
 20
800.818786
 42
0.013673
  0
VERTEX
  8
0
 10
474.845109
 20
804.264598
 42
-0.004264
  0
VERTEX
  8
0
 10
475.117571
 20
808.452113
 42
-0.063580
  0
VERTEX
  8
0
 10
475.409155
 20
809.886921
 42
-0.446407
  0
VERTEX
  8
0
 10
475.898432
 20
810.095858
 42
-0.126491
  0
VERTEX
  8
0
 10
476.623647
 20
809.500015
 42
0.010815
  0
VERTEX
  8
0
 10
477.501462
 20
808.352469
 42
0.362292
  0
VERTEX
  8
0
 10
477.816532
 20
808.288273
 42
0.255956
  0
VERTEX
  8
0
 10
478.022012
 20
808.605018
 42
0.006978
  0
VERTEX
  8
0
 10
478.125000
 20
810.308870
 42
-0.006754
  0
VERTEX
  8
0
 10
478.191213
 20
811.412505
 42
-0.006954
  0
VERTEX
  8
0
 10
478.286719
 20
812.503231
 42
-0.006758
  0
VERTEX
  8
0
 10
478.395394
 20
813.446021
 42
-0.029183
  0
VERTEX
  8
0
 10
478.500000
 20
814.000000
 42
0.039386
  0
VERTEX
  8
0
 10
478.605856
 20
814.630858
 42
0.004282
  0
VERTEX
  8
0
 10
478.722214
 20
816.101562
 42
0.005226
  0
VERTEX
  8
0
 10
478.827611
 20
817.857937
 42
0.004194
  0
VERTEX
  8
0
 10
478.905409
 20
819.750000
 42
-0.038830
  0
VERTEX
  8
0
 10
479.248654
 20
822.848529
 42
-0.713683
  0
VERTEX
  8
0
 10
479.910138
 20
822.943871
 42
-0.085031
  0
VERTEX
  8
0
 10
480.697032
 20
820.440805
 42
-0.012330
  0
SEQEND
  0
POLYLINE
  8
0
 66
1
 70
1
  0
VERTEX
  8
0
 10
442.394044
 20
818.843880
 42
-0.194894
  0
VERTEX
  8
0
 10
442.104507
 20
818.627058
 42
-0.051279
  0
VERTEX
  8
0
 10
441.520945
 20
818.535672
 42
-0.044173
  0
VERTEX
  8
0
 10
440.780357
 20
818.561914
 42
-0.033030
  0
VERTEX
  8
0
 10
439.977929
 20
818.716023
 42
-0.034690
  0
VERTEX
  8
0
 10
439.017396
 20
819.039811
 42
-0.182341
  0
VERTEX
  8
0
 10
438.618950
 20
819.414893
 42
-0.233596
  0
VERTEX
  8
0
 10
438.620920
 20
819.896937
 42
-0.057482
  0
VERTEX
  8
0
 10
439.066329
 20
820.579921
 42
-0.049910
  0
VERTEX
  8
0
 10
439.681778
 20
821.186737
 42
-0.157721
  0
VERTEX
  8
0
 10
440.215861
 20
821.391271
 42
-0.153982
  0
VERTEX
  8
0
 10
440.776809
 20
821.246426
 42
-0.046900
  0
VERTEX
  8
0
 10
441.482444
 20
820.707779
 42
-0.039809
  0
VERTEX
  8
0
 10
441.953805
 20
820.197218
 42
-0.052811
  0
VERTEX
  8
0
 10
442.289626
 20
819.662050
 42
-0.063899
  0
VERTEX
  8
0
 10
442.452648
 20
819.181803
 42
-0.187836
  0
SEQEND
  0
POLYLINE
  8
0
 66
1
 70
1
  0
VERTEX
  8
0
 10
487.885723
 20
818.929373
 42
-0.050263
  0
VERTEX
  8
0
 10
486.851256
 20
818.425666
 42
-0.249192
  0
VERTEX
  8
0
 10
486.231135
 20
818.510366
 42
-0.318990
  0
VERTEX
  8
0
 10
486.055152
 20
819.025759
 42
-0.066358
  0
VERTEX
  8
0
 10
486.468963
 20
819.949781
 42
-0.094768
  0
VERTEX
  8
0
 10
486.803462
 20
820.314250
 42
-0.096839
  0
VERTEX
  8
0
 10
487.246423
 20
820.526153
 42
-0.098884
  0
VERTEX
  8
0
 10
487.728720
 20
820.553190
 42
-0.103479
  0
VERTEX
  8
0
 10
488.175861
 20
820.391312
 42
-0.099167
  0
VERTEX
  8
0
 10
488.527509
 20
820.062889
 42
-0.207337
  0
VERTEX
  8
0
 10
488.605142
 20
819.703881
 42
-0.154764
  0
VERTEX
  8
0
 10
488.395325
 20
819.322543
 42
-0.051827
  0
SEQEND
  0
POLYLINE
  8
0
 66
1
 70
1
  0
VERTEX
  8
0
 10
494.029806
 20
817.944306
 42
-0.021591
  0
VERTEX
  8
0
 10
494.820696
 20
816.299577
 42
-0.682750
  0
VERTEX
  8
0
 10
494.590999
 20
816.073375
 42
-0.131512
  0
VERTEX
  8
0
 10
493.860788
 20
816.666166
 42
-0.011834
  0
VERTEX
  8
0
 10
492.511283
 20
818.623124
 42
-0.015861
  0
VERTEX
  8
0
 10
491.920255
 20
819.590759
 42
-0.051980
  0
VERTEX
  8
0
 10
491.620066
 20
820.276302
 42
-0.260080
  0
VERTEX
  8
0
 10
491.672196
 20
820.533446
 42
-0.369416
  0
VERTEX
  8
0
 10
491.890896
 20
820.567430
 42
-0.060260
  0
VERTEX
  8
0
 10
492.384881
 20
820.172882
 42
-0.023106
  0
VERTEX
  8
0
 10
492.972270
 20
819.516875
 42
-0.022480
  0
VERTEX
  8
0
 10
493.550765
 20
818.738455
 42
-0.025697
  0
SEQEND
  0
POLYLINE
  8
0
 66
1
 70
1
  0
VERTEX
  8
0
 10
497.197255
 20
797.341902
 42
-0.004741
  0
VERTEX
  8
0
 10
497.204433
 20
791.523819
 42
-0.007022
  0
VERTEX
  8
0
 10
497.090751
 20
786.424885
 42
-0.003530
  0
VERTEX
  8
0
 10
496.903902
 20
782.121902
 42
-0.126447
  0
VERTEX
  8
0
 10
496.609655
 20
781.177425
 42
-0.388438
  0
VERTEX
  8
0
 10
495.558069
 20
780.879334
 42
-0.241644
  0
VERTEX
  8
0
 10
494.745567
 20
781.989450
 42
-0.039764
  0
VERTEX
  8
0
 10
494.411909
 20
786.250938
 42
-0.007143
  0
VERTEX
  8
0
 10
494.536537
 20
794.220687
 42
-0.005556
  0
VERTEX
  8
0
 10
494.879944
 20
802.584732
 42
-0.014918
  0
VERTEX
  8
0
 10
495.367687
 20
808.520915
 42
-0.015531
  0
VERTEX
  8
0
 10
495.941163
 20
812.507411
 42
-0.607020
  0
VERTEX
  8
0
 10
496.613662
 20
812.719671
 42
-0.188035
  0
VERTEX
  8
0
 10
496.788126
 20
812.322259
 42
-0.001002
  0
VERTEX
  8
0
 10
496.959721
 20
808.027823
 42
-0.004184
  0
VERTEX
  8
0
 10
497.105294
 20
803.105168
 42
-0.002620
  0
SEQEND
  0
POLYLINE
  8
0
 66
1
 70
1
  0
VERTEX
  8
0
 10
432.564278
 20
806.924591
 42
-0.017208
  0
VERTEX
  8
0
 10
431.987657
 20
805.711796
 42
-0.061759
  0
VERTEX
  8
0
 10
431.503297
 20
805.006214
 42
-0.325873
  0
VERTEX
  8
0
 10
431.213338
 20
804.942650
 42
-0.291233
  0
VERTEX
  8
0
 10
431.039142
 20
805.202947
 42
-0.079838
  0
VERTEX
  8
0
 10
431.294354
 20
807.062986
 42
-0.030426
  0
VERTEX
  8
0
 10
432.210245
 20
809.522127
 42
-0.039478
  0
VERTEX
  8
0
 10
433.203273
 20
811.356052
 42
-0.628571
  0
VERTEX
  8
0
 10
433.737329
 20
811.288012
 42
-0.127734
  0
VERTEX
  8
0
 10
433.775239
 20
810.728562
 42
-0.019051
  0
VERTEX
  8
0
 10
433.521835
 20
809.618990
 42
-0.020390
  0
VERTEX
  8
0
 10
433.110342
 20
808.304605
 42
-0.016307
  0
SEQEND
  0
POLYLINE
  8
0
 66
1
 70
1
  0
VERTEX
  8
0
 10
454.113161
 20
799.713161
 42
-0.083464
  0
VERTEX
  8
0
 10
453.720478
 20
799.433499
 42
-0.453262
  0
VERTEX
  8
0
 10
453.508576
 20
799.522793
 42
-0.128412
  0
VERTEX
  8
0
 10
453.478393
 20
799.983442
 42
-0.016447
  0
VERTEX
  8
0
 10
453.699348
 20
800.958307
 42
0.055063
  0
VERTEX
  8
0
 10
453.844266
 20
801.945466
 42
0.070363
  0
VERTEX
  8
0
 10
453.748253
 20
802.858717
 42
0.079146
  0
VERTEX
  8
0
 10
453.422063
 20
803.623385
 42
0.100252
  0
VERTEX
  8
0
 10
452.893399
 20
804.178489
 42
-0.028743
  0
VERTEX
  8
0
 10
452.242601
 20
804.691360
 42
-0.189568
  0
VERTEX
  8
0
 10
452.057949
 20
805.053782
 42
-0.271398
  0
VERTEX
  8
0
 10
452.200564
 20
805.361895
 42
-0.055507
  0
VERTEX
  8
0
 10
452.750000
 20
805.659464
 42
0.138467
  0
VERTEX
  8
0
 10
453.242994
 20
806.042592
 42
0.052635
  0
VERTEX
  8
0
 10
453.687151
 20
806.801009
 42
0.046964
  0
VERTEX
  8
0
 10
454.021780
 20
807.775540
 42
0.041935
  0
VERTEX
  8
0
 10
454.184982
 20
808.833333
 42
-0.132133
  0
VERTEX
  8
0
 10
454.296926
 20
809.158033
 42
-0.664220
  0
VERTEX
  8
0
 10
454.424968
 20
809.132535
 42
-0.027450
  0
VERTEX
  8
0
 10
454.586566
 20
808.039155
 42
-0.005734
  0
VERTEX
  8
0
 10
454.742194
 20
806.107212
 42
-0.018270
  0
VERTEX
  8
0
 10
454.811453
 20
803.968953
 42
-0.023481
  0
VERTEX
  8
0
 10
454.710960
 20
802.004434
 42
-0.022339
  0
VERTEX
  8
0
 10
454.481894
 20
800.410495
 42
-0.150622
  0
SEQEND
  0
POLYLINE
  8
0
 66
1
 70
1
  0
VERTEX
  8
0
 10
439.000000
 20
808.059017
 42
-0.089642
  0
VERTEX
  8
0
 10
438.926698
 20
807.653442
 42
-0.053229
  0
VERTEX
  8
0
 10
438.706250
 20
807.212900
 42
-0.051032
  0
VERTEX
  8
0
 10
438.382515
 20
806.806203
 42
-0.060810
  0
VERTEX
  8
0
 10
438.000000
 20
806.500000
 42
-0.139169
  0
VERTEX
  8
0
 10
437.620352
 20
806.392057
 42
-0.191142
  0
VERTEX
  8
0
 10
437.293750
 20
806.521475
 42
-0.138808
  0
VERTEX
  8
0
 10
437.073267
 20
806.889346
 42
-0.066118
  0
VERTEX
  8
0
 10
437.000000
 20
807.440983
 42
-0.062283
  0
VERTEX
  8
0
 10
437.074545
 20
808.037096
 42
-0.080552
  0
VERTEX
  8
0
 10
437.293750
 20
808.542039
 42
-0.097988
  0
VERTEX
  8
0
 10
437.618621
 20
808.879982
 42
-0.153634
  0
VERTEX
  8
0
 10
438.000000
 20
809.000000
 42
-0.092995
  0
VERTEX
  8
0
 10
438.381732
 20
808.928382
 42
-0.096318
  0
VERTEX
  8
0
 10
438.706250
 20
808.723586
 42
-0.099231
  0
VERTEX
  8
0
 10
438.923444
 20
808.418051
 42
-0.105429
  0
SEQEND
  0
POLYLINE
  8
0
 66
1
 70
1
  0
VERTEX
  8
0
 10
451.331247
 20
806.420832
 42
0.093032
  0
VERTEX
  8
0
 10
451.209926
 20
805.757431
 42
0.056071
  0
VERTEX
  8
0
 10
451.303301
 20
804.960762
 42
0.053554
  0
VERTEX
  8
0
 10
451.582735
 20
804.159890
 42
0.062585
  0
VERTEX
  8
0
 10
452.015472
 20
803.481357
 42
-0.082807
  0
VERTEX
  8
0
 10
452.517748
 20
802.619151
 42
-0.186695
  0
VERTEX
  8
0
 10
452.512621
 20
801.875053
 42
-0.111443
  0
VERTEX
  8
0
 10
451.963039
 20
801.068273
 42
-0.021081
  0
VERTEX
  8
0
 10
450.602165
 20
799.901703
 42
0.042977
  0
VERTEX
  8
0
 10
449.480604
 20
798.851784
 42
0.024219
  0
VERTEX
  8
0
 10
448.301744
 20
797.406000
 42
0.024020
  0
VERTEX
  8
0
 10
447.245630
 20
795.820403
 42
0.035960
  0
VERTEX
  8
0
 10
446.495774
 20
794.335643
 42
-0.053700
  0
VERTEX
  8
0
 10
445.415958
 20
792.373422
 42
-0.182879
  0
VERTEX
  8
0
 10
444.231209
 20
791.565213
 42
-0.352162
  0
VERTEX
  8
0
 10
443.348332
 20
791.981172
 42
-0.113813
  0
VERTEX
  8
0
 10
443.000000
 20
793.491629
 42
0.130037
  0
VERTEX
  8
0
 10
442.848224
 20
794.065351
 42
0.068837
  0
VERTEX
  8
0
 10
442.397034
 20
794.653105
 42
0.061123
  0
VERTEX
  8
0
 10
441.732303
 20
795.165334
 42
0.056840
  0
VERTEX
  8
0
 10
440.947350
 20
795.516710
 42
-0.032733
  0
VERTEX
  8
0
 10
439.936564
 20
795.911986
 42
-0.184852
  0
VERTEX
  8
0
 10
439.541880
 20
796.321465
 42
-0.227139
  0
VERTEX
  8
0
 10
439.565106
 20
796.834146
 42
-0.050230
  0
VERTEX
  8
0
 10
440.069795
 20
797.584098
 42
0.031028
  0
VERTEX
  8
0
 10
440.467079
 20
798.128196
 42
0.073847
  0
VERTEX
  8
0
 10
440.671335
 20
798.584079
 42
0.166302
  0
VERTEX
  8
0
 10
440.655167
 20
798.873580
 42
0.305347
  0
VERTEX
  8
0
 10
440.467457
 20
799.000000
 42
-0.429821
  0
VERTEX
  8
0
 10
440.316882
 20
799.158773
 42
-0.101655
  0
VERTEX
  8
0
 10
440.420328
 20
799.554629
 42
-0.047989
  0
VERTEX
  8
0
 10
440.796559
 20
800.162634
 42
-0.021387
  0
VERTEX
  8
0
 10
441.398732
 20
800.888100
 42
0.043260
  0
VERTEX
  8
0
 10
442.064640
 20
801.765701
 42
0.031454
  0
VERTEX
  8
0
 10
442.652238
 20
802.841942
 42
0.032026
  0
VERTEX
  8
0
 10
443.082733
 20
803.942612
 42
0.058470
  0
VERTEX
  8
0
 10
443.266524
 20
804.888100
 42
-0.023875
  0
VERTEX
  8
0
 10
443.366437
 20
805.696784
 42
-0.037243
  0
VERTEX
  8
0
 10
443.536679
 20
806.377338
 42
-0.042512
  0
VERTEX
  8
0
 10
443.744834
 20
806.863495
 42
-0.281015
  0
VERTEX
  8
0
 10
443.962804
 20
806.992198
 42
-0.277465
  0
VERTEX
  8
0
 10
444.688633
 20
806.541341
 42
-0.019592
  0
VERTEX
  8
0
 10
445.736015
 20
804.284253
 42
-0.020890
  0
VERTEX
  8
0
 10
446.597638
 20
801.949346
 42
-0.219768
  0
VERTEX
  8
0
 10
446.477948
 20
800.964319
 42
0.176475
  0
VERTEX
  8
0
 10
446.409781
 20
800.635186
 42
0.118943
  0
VERTEX
  8
0
 10
446.554200
 20
800.275599
 42
0.088728
  0
VERTEX
  8
0
 10
446.898629
 20
799.938175
 42
0.057996
  0
VERTEX
  8
0
 10
447.392559
 20
799.679603
 42
0.088194
  0
VERTEX
  8
0
 10
447.998215
 20
799.562825
 42
0.288244
  0
VERTEX
  8
0
 10
448.331532
 20
799.765688
 42
0.152978
  0
VERTEX
  8
0
 10
448.418182
 20
800.305415
 42
0.026922
  0
VERTEX
  8
0
 10
448.213400
 20
801.324818
 42
-0.010779
  0
VERTEX
  8
0
 10
447.920082
 20
802.574623
 42
-0.274558
  0
VERTEX
  8
0
 10
448.028004
 20
802.892864
 42
-0.347370
  0
VERTEX
  8
0
 10
448.327705
 20
802.904641
 42
-0.014299
  0
VERTEX
  8
0
 10
449.237557
 20
802.201442
 42
0.043739
  0
VERTEX
  8
0
 10
449.940891
 20
801.721139
 42
0.092952
  0
VERTEX
  8
0
 10
450.562880
 20
801.510618
 42
0.135946
  0
VERTEX
  8
0
 10
451.065410
 20
801.575932
 42
0.155675
  0
VERTEX
  8
0
 10
451.432005
 20
801.889981
 42
0.167351
  0
VERTEX
  8
0
 10
451.533485
 20
802.339680
 42
0.100695
  0
VERTEX
  8
0
 10
451.364689
 20
802.865910
 42
0.079626
  0
VERTEX
  8
0
 10
450.949555
 20
803.389871
 42
0.057977
  0
VERTEX
  8
0
 10
450.346164
 20
803.826153
 42
-0.089361
  0
VERTEX
  8
0
 10
449.024614
 20
804.913447
 42
-0.159150
  0
VERTEX
  8
0
 10
448.496418
 20
806.204146
 42
-0.230627
  0
VERTEX
  8
0
 10
448.908346
 20
807.233868
 42
-0.166962
  0
VERTEX
  8
0
 10
450.061530
 20
807.729682
 42
-0.054823
  0
VERTEX
  8
0
 10
450.828416
 20
807.703328
 42
-0.165662
  0
VERTEX
  8
0
 10
451.287657
 20
807.468760
 42
-0.202079
  0
VERTEX
  8
0
 10
451.454720
 20
807.039858
 42
-0.084967
  0
SEQEND
  0
POLYLINE
  8
0
 66
1
 70
1
  0
VERTEX
  8
0
 10
487.000000
 20
803.000000
 42
-0.105053
  0
VERTEX
  8
0
 10
486.918938
 20
802.618444
 42
-0.099167
  0
VERTEX
  8
0
 10
486.688914
 20
802.293750
 42
-0.096420
  0
VERTEX
  8
0
 10
486.345238
 20
802.076123
 42
-0.093332
  0
VERTEX
  8
0
 10
485.940983
 20
802.000000
 42
-0.108972
  0
VERTEX
  8
0
 10
485.586039
 20
802.078288
 42
-0.182303
  0
VERTEX
  8
0
 10
485.374600
 20
802.293750
 42
-0.161196
  0
VERTEX
  8
0
 10
485.343488
 20
802.617900
 42
-0.082592
  0
VERTEX
  8
0
 10
485.500000
 20
803.000000
 42
-0.029505
  0
VERTEX
  8
0
 10
485.768994
 20
803.382774
 42
-0.035638
  0
VERTEX
  8
0
 10
486.066025
 20
803.706250
 42
-0.038439
  0
VERTEX
  8
0
 10
486.348290
 20
803.934461
 42
-0.151918
  0
VERTEX
  8
0
 10
486.559017
 20
804.000000
 42
-0.210953
  0
VERTEX
  8
0
 10
486.727648
 20
803.925540
 42
-0.081139
  0
VERTEX
  8
0
 10
486.870461
 20
803.706250
 42
-0.061769
  0
VERTEX
  8
0
 10
486.967655
 20
803.382849
 42
-0.042167
  0
SEQEND
  0
POLYLINE
  8
0
 66
1
 70
1
  0
VERTEX
  8
0
 10
430.683114
 20
798.812500
 42
-0.054073
  0
VERTEX
  8
0
 10
430.461564
 20
798.395823
 42
-0.470617
  0
VERTEX
  8
0
 10
430.279315
 20
798.378580
 42
-0.168741
  0
VERTEX
  8
0
 10
430.137993
 20
798.670344
 42
-0.018894
  0
VERTEX
  8
0
 10
430.078947
 20
799.416667
 42
-0.028489
  0
VERTEX
  8
0
 10
430.089945
 20
800.112848
 42
-0.077125
  0
VERTEX
  8
0
 10
430.200665
 20
800.592839
 42
-0.208169
  0
VERTEX
  8
0
 10
430.385309
 20
800.775380
 42
-0.296942
  0
VERTEX
  8
0
 10
430.604167
 20
800.729167
 42
-0.126455
  0
VERTEX
  8
0
 10
430.797407
 20
800.402231
 42
-0.060344
  0
VERTEX
  8
0
 10
430.876576
 20
799.916927
 42
-0.054150
  0
VERTEX
  8
0
 10
430.839148
 20
799.359369
 42
-0.051402
  0
SEQEND
  0
POLYLINE
  8
0
 66
1
 70
1
  0
VERTEX
  8
0
 10
489.000000
 20
797.031385
 42
-0.184534
  0
VERTEX
  8
0
 10
488.877514
 20
796.710807
 42
-0.147206
  0
VERTEX
  8
0
 10
488.559375
 20
796.516384
 42
-0.100118
  0
VERTEX
  8
0
 10
488.074366
 20
796.488865
 42
-0.055937
  0
VERTEX
  8
0
 10
487.500000
 20
796.638374
 42
-0.021360
  0
VERTEX
  8
0
 10
486.925442
 20
796.887494
 42
-0.030395
  0
VERTEX
  8
0
 10
486.440625
 20
797.160341
 42
-0.030693
  0
VERTEX
  8
0
 10
486.087111
 20
797.420671
 42
-0.222225
  0
VERTEX
  8
0
 10
486.000000
 20
797.606989
 42
-0.289661
  0
VERTEX
  8
0
 10
486.096084
 20
797.758929
 42
-0.046727
  0
VERTEX
  8
0
 10
486.440625
 20
797.884553
 42
-0.039339
  0
VERTEX
  8
0
 10
486.925176
 20
797.971531
 42
-0.024748
  0
VERTEX
  8
0
 10
487.500000
 20
798.000000
 42
-0.062722
  0
VERTEX
  8
0
 10
488.073532
 20
797.927770
 42
-0.080880
  0
VERTEX
  8
0
 10
488.559375
 20
797.715469
 42
-0.098158
  0
VERTEX
  8
0
 10
488.884506
 20
797.400789
 42
-0.152681
  0
SEQEND
  0
POLYLINE
  8
0
 66
1
 70
1
  0
VERTEX
  8
0
 10
464.941601
 20
791.948227
 42
-0.010265
  0
VERTEX
  8
0
 10
466.046710
 20
791.587959
 42
-0.129089
  0
VERTEX
  8
0
 10
466.407792
 20
791.344924
 42
-0.574897
  0
VERTEX
  8
0
 10
466.348947
 20
791.168477
 42
-0.039435
  0
VERTEX
  8
0
 10
465.700340
 20
791.085953
 42
-0.095681
  0
VERTEX
  8
0
 10
463.938173
 20
791.339776
 42
-0.022521
  0
VERTEX
  8
0
 10
461.159736
 20
792.445887
 42
-0.016061
  0
VERTEX
  8
0
 10
458.481859
 20
793.759412
 42
-0.277472
  0
VERTEX
  8
0
 10
458.000000
 20
794.560864
 42
-0.451406
  0
VERTEX
  8
0
 10
458.139083
 20
794.683528
 42
-0.042186
  0
VERTEX
  8
0
 10
458.643783
 20
794.576159
 42
-0.032318
  0
VERTEX
  8
0
 10
459.350622
 20
794.311274
 42
-0.017061
  0
VERTEX
  8
0
 10
460.191601
 20
793.897458
 42
0.016363
  0
VERTEX
  8
0
 10
461.215122
 20
793.392045
 42
0.009136
  0
VERTEX
  8
0
 10
462.490948
 20
792.841047
 42
0.009106
  0
VERTEX
  8
0
 10
463.802777
 20
792.330428
 42
0.014595
  0
SEQEND
  0
POLYLINE
  8
0
 66
1
 70
1
  0
VERTEX
  8
0
 10
442.500000
 20
790.166667
 42
-0.043470
  0
VERTEX
  8
0
 10
442.426174
 20
789.319123
 42
-0.054696
  0
VERTEX
  8
0
 10
442.206250
 20
788.563021
 42
-0.065090
  0
VERTEX
  8
0
 10
441.883345
 20
788.002099
 42
-0.169980
  0
VERTEX
  8
0
 10
441.500000
 20
787.750000
 42
-0.273655
  0
VERTEX
  8
0
 10
441.114667
 20
787.864674
 42
-0.088485
  0
VERTEX
  8
0
 10
440.780037
 20
788.385821
 42
-0.059671
  0
VERTEX
  8
0
 10
440.543541
 20
789.223718
 42
-0.034767
  0
VERTEX
  8
0
 10
440.453316
 20
790.265561
 42
-0.036189
  0
VERTEX
  8
0
 10
440.510793
 20
791.300720
 42
-0.066228
  0
VERTEX
  8
0
 10
440.727809
 20
792.116251
 42
-0.106435
  0
VERTEX
  8
0
 10
441.058831
 20
792.595553
 42
-0.275698
  0
VERTEX
  8
0
 10
441.453316
 20
792.682228
 42
-0.153044
  0
VERTEX
  8
0
 10
441.854598
 20
792.392416
 42
-0.061901
  0
VERTEX
  8
0
 10
442.192537
 20
791.799363
 42
-0.053450
  0
VERTEX
  8
0
 10
442.422562
 20
791.021428
 42
-0.045205
  0
SEQEND
  0
POLYLINE
  8
0
 66
1
 70
1
  0
VERTEX
  8
0
 10
431.683114
 20
789.812500
 42
-0.054073
  0
VERTEX
  8
0
 10
431.461564
 20
789.395823
 42
-0.470617
  0
VERTEX
  8
0
 10
431.279315
 20
789.378580
 42
-0.168741
  0
VERTEX
  8
0
 10
431.137993
 20
789.670344
 42
-0.018894
  0
VERTEX
  8
0
 10
431.078947
 20
790.416667
 42
-0.028489
  0
VERTEX
  8
0
 10
431.089945
 20
791.112848
 42
-0.077125
  0
VERTEX
  8
0
 10
431.200665
 20
791.592839
 42
-0.208169
  0
VERTEX
  8
0
 10
431.385309
 20
791.775380
 42
-0.296942
  0
VERTEX
  8
0
 10
431.604167
 20
791.729167
 42
-0.126455
  0
VERTEX
  8
0
 10
431.797407
 20
791.402231
 42
-0.060344
  0
VERTEX
  8
0
 10
431.876576
 20
790.916927
 42
-0.054150
  0
VERTEX
  8
0
 10
431.839148
 20
790.359369
 42
-0.051402
  0
SEQEND
  0
POLYLINE
  8
0
 66
1
 70
1
  0
VERTEX
  8
0
 10
439.000000
 20
787.940983
 42
-0.105429
  0
VERTEX
  8
0
 10
438.923444
 20
787.581949
 42
-0.099231
  0
VERTEX
  8
0
 10
438.706250
 20
787.276414
 42
-0.096318
  0
VERTEX
  8
0
 10
438.381732
 20
787.071618
 42
-0.092995
  0
VERTEX
  8
0
 10
438.000000
 20
787.000000
 42
-0.153634
  0
VERTEX
  8
0
 10
437.618621
 20
787.120018
 42
-0.097988
  0
VERTEX
  8
0
 10
437.293750
 20
787.457961
 42
-0.080552
  0
VERTEX
  8
0
 10
437.074545
 20
787.962904
 42
-0.062283
  0
VERTEX
  8
0
 10
437.000000
 20
788.559017
 42
-0.066118
  0
VERTEX
  8
0
 10
437.073267
 20
789.110654
 42
-0.138808
  0
VERTEX
  8
0
 10
437.293750
 20
789.478525
 42
-0.191142
  0
VERTEX
  8
0
 10
437.620352
 20
789.607943
 42
-0.139169
  0
VERTEX
  8
0
 10
438.000000
 20
789.500000
 42
-0.060810
  0
VERTEX
  8
0
 10
438.382515
 20
789.193797
 42
-0.051032
  0
VERTEX
  8
0
 10
438.706250
 20
788.787100
 42
-0.053229
  0
VERTEX
  8
0
 10
438.926698
 20
788.346558
 42
-0.089642
  0
SEQEND
  0
POLYLINE
  8
0
 66
1
 70
1
  0
VERTEX
  8
0
 10
433.695235
 20
784.724230
 42
-0.008080
  0
VERTEX
  8
0
 10
433.840366
 20
783.545250
 42
-0.217883
  0
VERTEX
  8
0
 10
433.742902
 20
783.253814
 42
-0.465300
  0
VERTEX
  8
0
 10
433.537651
 20
783.264499
 42
-0.016395
  0
VERTEX
  8
0
 10
433.018111
 20
784.000000
 42
-0.063597
  0
VERTEX
  8
0
 10
432.356393
 20
785.351932
 42
-0.059808
  0
VERTEX
  8
0
 10
432.038022
 20
786.855329
 42
-0.171926
  0
VERTEX
  8
0
 10
432.228135
 20
787.595820
 42
-0.472113
  0
VERTEX
  8
0
 10
432.692436
 20
787.640897
 42
-0.088673
  0
VERTEX
  8
0
 10
432.980058
 20
787.228069
 42
-0.025124
  0
VERTEX
  8
0
 10
433.272638
 20
786.498496
 42
-0.024472
  0
VERTEX
  8
0
 10
433.525481
 20
785.626510
 42
-0.023666
  0
SEQEND
  0
POLYLINE
  8
0
 66
1
 70
1
  0
VERTEX
  8
0
 10
466.903079
 20
782.383217
 42
-0.046029
  0
VERTEX
  8
0
 10
466.380439
 20
781.859865
 42
-0.043434
  0
VERTEX
  8
0
 10
465.761107
 20
781.429511
 42
-0.046489
  0
VERTEX
  8
0
 10
465.142109
 20
781.147459
 42
-0.101482
  0
VERTEX
  8
0
 10
464.627555
 20
781.078947
 42
-0.038264
  0
VERTEX
  8
0
 10
464.212084
 20
781.140207
 42
-0.409541
  0
VERTEX
  8
0
 10
464.128562
 20
781.270369
 42
-0.227742
  0
VERTEX
  8
0
 10
464.258149
 20
781.439164
 42
-0.021172
  0
VERTEX
  8
0
 10
464.750000
 20
781.662281
 42
0.061896
  0
VERTEX
  8
0
 10
465.227966
 20
781.927857
 42
0.059740
  0
VERTEX
  8
0
 10
465.632812
 20
782.305110
 42
0.064692
  0
VERTEX
  8
0
 10
465.907552
 20
782.731748
 42
0.111184
  0
VERTEX
  8
0
 10
466.000000
 20
783.142350
 42
0.148641
  0
VERTEX
  8
0
 10
465.905283
 20
783.453922
 42
0.191612
  0
VERTEX
  8
0
 10
465.660863
 20
783.621829
 42
0.132640
  0
VERTEX
  8
0
 10
465.287719
 20
783.606726
 42
0.062426
  0
VERTEX
  8
0
 10
464.845492
 20
783.404508
 42
-0.029304
  0
VERTEX
  8
0
 10
464.395653
 20
783.161683
 42
-0.293058
  0
VERTEX
  8
0
 10
464.193445
 20
783.188892
 42
-0.333325
  0
VERTEX
  8
0
 10
464.151292
 20
783.374434
 42
-0.033384
  0
VERTEX
  8
0
 10
464.377517
 20
783.801818
 42
-0.112599
  0
VERTEX
  8
0
 10
464.752692
 20
784.182716
 42
-0.081903
  0
VERTEX
  8
0
 10
465.301096
 20
784.417994
 42
-0.076203
  0
VERTEX
  8
0
 10
465.935258
 20
784.475044
 42
-0.076151
  0
VERTEX
  8
0
 10
466.557548
 20
784.339543
 42
-0.055318
  0
VERTEX
  8
0
 10
467.235311
 20
783.989332
 42
-0.204929
  0
VERTEX
  8
0
 10
467.492966
 20
783.595277
 42
-0.178124
  0
VERTEX
  8
0
 10
467.403431
 20
783.096825
 42
-0.040633
  0
SEQEND
  0
POLYLINE
  8
0
 66
1
 70
1
  0
VERTEX
  8
0
 10
443.664167
 20
777.567217
 42
-0.146036
  0
VERTEX
  8
0
 10
442.845033
 20
776.503959
 42
-0.138767
  0
VERTEX
  8
0
 10
441.560333
 20
776.037086
 42
-0.183416
  0
VERTEX
  8
0
 10
440.462181
 20
776.364790
 42
-0.233615
  0
VERTEX
  8
0
 10
440.000000
 20
777.300000
 42
-0.073375
  0
VERTEX
  8
0
 10
440.086276
 20
777.884742
 42
-0.038655
  0
VERTEX
  8
0
 10
440.352500
 20
778.570625
 42
-0.037433
  0
VERTEX
  8
0
 10
440.740724
 20
779.244990
 42
-0.047088
  0
VERTEX
  8
0
 10
441.200000
 20
779.800000
 42
-0.156465
  0
VERTEX
  8
0
 10
442.293025
 20
780.362093
 42
-0.229072
  0
VERTEX
  8
0
 10
443.313085
 20
780.062353
 42
-0.186286
  0
VERTEX
  8
0
 10
443.855573
 20
778.984456
 42
-0.116606
  0
SEQEND
  0
POLYLINE
  8
0
 66
1
 70
1
  0
VERTEX
  8
0
 10
458.856763
 20
778.890313
 42
-0.047165
  0
VERTEX
  8
0
 10
458.206493
 20
778.559571
 42
-0.026656
  0
VERTEX
  8
0
 10
457.367150
 20
778.278661
 42
-0.026400
  0
VERTEX
  8
0
 10
456.482758
 20
778.083794
 42
-0.038925
  0
VERTEX
  8
0
 10
455.690983
 20
778.015313
 42
0.052963
  0
VERTEX
  8
0
 10
455.039978
 20
777.940582
 42
0.113799
  0
VERTEX
  8
0
 10
454.586983
 20
777.723577
 42
0.185546
  0
VERTEX
  8
0
 10
454.401258
 20
777.406965
 42
0.181238
  0
VERTEX
  8
0
 10
454.473008
 20
777.043674
 42
0.116874
  0
VERTEX
  8
0
 10
454.799982
 20
776.717267
 42
0.081792
  0
VERTEX
  8
0
 10
455.283743
 20
776.519196
 42
0.075077
  0
VERTEX
  8
0
 10
455.846937
 20
776.476581
 42
0.073145
  0
VERTEX
  8
0
 10
456.402983
 20
776.601145
 42
-0.246910
  0
VERTEX
  8
0
 10
457.532776
 20
776.467517
 42
-0.157399
  0
VERTEX
  8
0
 10
458.359092
 20
775.395523
 42
-0.120590
  0
VERTEX
  8
0
 10
458.527074
 20
773.792937
 42
-0.140193
  0
VERTEX
  8
0
 10
457.912248
 20
772.394265
 42
-0.072915
  0
VERTEX
  8
0
 10
457.300082
 20
771.843665
 42
-0.112047
  0
VERTEX
  8
0
 10
456.636644
 20
771.591090
 42
-0.103284
  0
VERTEX
  8
0
 10
455.889461
 20
771.639904
 42
-0.055136
  0
VERTEX
  8
0
 10
455.026478
 20
771.985830
 42
0.017445
  0
VERTEX
  8
0
 10
454.322335
 20
772.331641
 42
0.023932
  0
VERTEX
  8
0
 10
453.665420
 20
772.589288
 42
0.022014
  0
VERTEX
  8
0
 10
453.118675
 20
772.747629
 42
0.186524
  0
VERTEX
  8
0
 10
452.869509
 20
772.714816
 42
-0.821869
  0
VERTEX
  8
0
 10
452.846856
 20
772.742004
 42
-0.028978
  0
VERTEX
  8
0
 10
453.018480
 20
772.930290
 42
-0.011284
  0
VERTEX
  8
0
 10
453.397063
 20
773.283793
 42
-0.004546
  0
VERTEX
  8
0
 10
453.929156
 20
773.750000
 42
0.013469
  0
VERTEX
  8
0
 10
454.725969
 20
774.473682
 42
0.265976
  0
VERTEX
  8
0
 10
454.815956
 20
774.779012
 42
0.327631
  0
VERTEX
  8
0
 10
454.596179
 20
774.965737
 42
0.017764
  0
VERTEX
  8
0
 10
453.632113
 20
775.000000
 42
-0.057617
  0
VERTEX
  8
0
 10
453.006115
 20
775.072376
 42
-0.123954
  0
VERTEX
  8
0
 10
452.577619
 20
775.293750
 42
-0.190761
  0
VERTEX
  8
0
 10
452.411224
 20
775.621086
 42
-0.163142
  0
VERTEX
  8
0
 10
452.500000
 20
776.000000
 42
0.106323
  0
VERTEX
  8
0
 10
452.635503
 20
776.380971
 42
0.180852
  0
VERTEX
  8
0
 10
452.560039
 20
776.706250
 42
0.163332
  0
VERTEX
  8
0
 10
452.279436
 20
776.924564
 42
0.084548
  0
VERTEX
  8
0
 10
451.836511
 20
777.000000
 42
-0.284778
  0
VERTEX
  8
0
 10
451.583212
 20
777.157000
 42
-0.259872
  0
VERTEX
  8
0
 10
451.597921
 20
777.466825
 42
-0.076511
  0
VERTEX
  8
0
 10
452.034880
 20
777.976578
 42
-0.024605
  0
VERTEX
  8
0
 10
452.823875
 20
778.589191
 42
-0.042391
  0
VERTEX
  8
0
 10
453.799470
 20
779.155947
 42
-0.042842
  0
VERTEX
  8
0
 10
454.853277
 20
779.547701
 42
-0.046462
  0
VERTEX
  8
0
 10
455.828002
 20
779.722484
 42
-0.113225
  0
VERTEX
  8
0
 10
456.546381
 20
779.620575
 42
0.061921
  0
VERTEX
  8
0
 10
457.102693
 20
779.482830
 42
0.108334
  0
VERTEX
  8
0
 10
457.572999
 20
779.528492
 42
0.150908
  0
VERTEX
  8
0
 10
457.882036
 20
779.745483
 42
0.166275
  0
VERTEX
  8
0
 10
458.000000
 20
780.090402
 42
-0.130537
  0
VERTEX
  8
0
 10
458.089083
 20
780.425806
 42
-0.189872
  0
VERTEX
  8
0
 10
458.325112
 20
780.615237
 42
-0.144790
  0
VERTEX
  8
0
 10
458.683199
 20
780.620054
 42
-0.069975
  0
VERTEX
  8
0
 10
459.106763
 20
780.434017
 42
-0.079241
  0
VERTEX
  8
0
 10
459.524505
 20
780.073700
 42
-0.218762
  0
VERTEX
  8
0
 10
459.625764
 20
779.708088
 42
-0.167837
  0
VERTEX
  8
0
 10
459.417879
 20
779.321264
 42
-0.045108
  0
SEQEND
  0
POLYLINE
  8
0
 66
1
 70
1
  0
VERTEX
  8
0
 10
466.454751
 20
777.359917
 42
0.092246
  0
VERTEX
  8
0
 10
466.836562
 20
777.589388
 42
0.083763
  0
VERTEX
  8
0
 10
467.125541
 20
777.947820
 42
0.084586
  0
VERTEX
  8
0
 10
467.278924
 20
778.377833
 42
0.096900
  0
VERTEX
  8
0
 10
467.270496
 20
778.813512
 42
-0.245952
  0
VERTEX
  8
0
 10
467.378212
 20
779.203037
 42
-0.111382
  0
VERTEX
  8
0
 10
467.828853
 20
779.509242
 42
-0.072080
  0
VERTEX
  8
0
 10
468.570349
 20
779.683692
 42
-0.040989
  0
VERTEX
  8
0
 10
469.493568
 20
779.688512
 42
-0.056295
  0
VERTEX
  8
0
 10
471.087808
 20
779.383260
 42
-0.233309
  0
VERTEX
  8
0
 10
471.778042
 20
778.727134
 42
-0.122860
  0
VERTEX
  8
0
 10
471.914492
 20
777.466457
 42
-0.012192
  0
VERTEX
  8
0
 10
471.422904
 20
774.440736
 42
-0.050383
  0
VERTEX
  8
0
 10
470.984541
 20
772.950712
 42
-0.080223
  0
VERTEX
  8
0
 10
470.295180
 20
771.818497
 42
-0.078847
  0
VERTEX
  8
0
 10
469.274877
 20
770.947859
 42
-0.047065
  0
VERTEX
  8
0
 10
467.838360
 20
770.245089
 42
-0.009449
  0
VERTEX
  8
0
 10
466.139066
 20
769.640110
 42
-0.121351
  0
VERTEX
  8
0
 10
465.471533
 20
769.585513
 42
-0.393168
  0
VERTEX
  8
0
 10
465.239914
 20
769.882921
 42
-0.069833
  0
VERTEX
  8
0
 10
465.413868
 20
770.636141
 42
0.017512
  0
VERTEX
  8
0
 10
465.638255
 20
771.288283
 42
0.015287
  0
VERTEX
  8
0
 10
465.827824
 20
771.984616
 42
0.015545
  0
VERTEX
  8
0
 10
465.960363
 20
772.624835
 42
0.043290
  0
VERTEX
  8
0
 10
466.000000
 20
773.081787
 42
-0.178151
  0
VERTEX
  8
0
 10
466.131850
 20
773.440094
 42
-0.084896
  0
VERTEX
  8
0
 10
466.514063
 20
773.759556
 42
-0.067523
  0
VERTEX
  8
0
 10
467.080416
 20
773.993670
 42
-0.050102
  0
VERTEX
  8
0
 10
467.750000
 20
774.099680
 42
0.045097
  0
VERTEX
  8
0
 10
468.338456
 20
774.186830
 42
0.572255
  0
VERTEX
  8
0
 10
468.390719
 20
774.359384
 42
0.126094
  0
VERTEX
  8
0
 10
468.030395
 20
774.592630
 42
0.011471
  0
VERTEX
  8
0
 10
467.000000
 20
774.912143
 42
0.038452
  0
VERTEX
  8
0
 10
465.795968
 20
775.157311
 42
0.094830
  0
VERTEX
  8
0
 10
464.899842
 20
775.098904
 42
0.123160
  0
VERTEX
  8
0
 10
464.232653
 20
774.735053
 42
0.092334
  0
VERTEX
  8
0
 10
463.729475
 20
774.062463
 42
-0.016822
  0
VERTEX
  8
0
 10
463.383810
 20
773.417196
 42
-0.596946
  0
VERTEX
  8
0
 10
463.248344
 20
773.421394
 42
-0.157253
  0
VERTEX
  8
0
 10
463.203720
 20
773.713640
 42
-0.006769
  0
VERTEX
  8
0
 10
463.385855
 20
774.750000
 42
0.047934
  0
VERTEX
  8
0
 10
463.494321
 20
775.929347
 42
0.192190
  0
VERTEX
  8
0
 10
463.228168
 20
776.588367
 42
0.163239
  0
VERTEX
  8
0
 10
462.545701
 20
776.946789
 42
0.032576
  0
VERTEX
  8
0
 10
461.156380
 20
777.078947
 42
-0.018002
  0
VERTEX
  8
0
 10
460.207552
 20
777.141386
 42
-0.072996
  0
VERTEX
  8
0
 10
459.647499
 20
777.282867
 42
-0.396664
  0
VERTEX
  8
0
 10
459.564625
 20
777.467273
 42
-0.216903
  0
VERTEX
  8
0
 10
459.750000
 20
777.662281
 42
0.089837
  0
VERTEX
  8
0
 10
460.227924
 20
777.963729
 42
0.065384
  0
VERTEX
  8
0
 10
460.632812
 20
778.446092
 42
0.064081
  0
VERTEX
  8
0
 10
460.906629
 20
779.028123
 42
0.078094
  0
VERTEX
  8
0
 10
461.000000
 20
779.622288
 42
-0.126313
  0
VERTEX
  8
0
 10
461.139685
 20
780.166397
 42
-0.346228
  0
VERTEX
  8
0
 10
461.481438
 20
780.311527
 42
-0.106745
  0
VERTEX
  8
0
 10
462.105410
 20
779.988486
 42
-0.014906
  0
VERTEX
  8
0
 10
463.204751
 20
779.023872
 42
0.030780
  0
VERTEX
  8
0
 10
464.125526
 20
778.266268
 42
0.038457
  0
VERTEX
  8
0
 10
465.068898
 20
777.687795
 42
0.042365
  0
VERTEX
  8
0
 10
465.905731
 20
777.345266
 42
0.166776
  0
SEQEND
  0
POLYLINE
  8
0
 66
1
 70
1
  0
VERTEX
  8
0
 10
485.500000
 20
778.000000
 42
-0.088250
  0
VERTEX
  8
0
 10
485.157656
 20
777.617164
 42
-0.053305
  0
VERTEX
  8
0
 10
484.640225
 20
777.293750
 42
-0.051278
  0
VERTEX
  8
0
 10
484.038022
 20
777.074167
 42
-0.061875
  0
VERTEX
  8
0
 10
483.440983
 20
777.000000
 42
-0.067639
  0
VERTEX
  8
0
 10
482.890182
 20
777.074854
 42
-0.084330
  0
VERTEX
  8
0
 10
482.423289
 20
777.293750
 42
-0.099650
  0
VERTEX
  8
0
 10
482.111069
 20
777.618660
 42
-0.142666
  0
VERTEX
  8
0
 10
482.000000
 20
778.000000
 42
-0.195654
  0
VERTEX
  8
0
 10
482.155423
 20
778.381985
 42
-0.086673
  0
VERTEX
  8
0
 10
482.604836
 20
778.706250
 42
-0.066561
  0
VERTEX
  8
0
 10
483.270941
 20
778.926392
 42
-0.046600
  0
VERTEX
  8
0
 10
484.059017
 20
779.000000
 42
-0.047867
  0
VERTEX
  8
0
 10
484.804599
 20
778.928459
 42
-0.104212
  0
VERTEX
  8
0
 10
485.331650
 20
778.706250
 42
-0.181468
  0
VERTEX
  8
0
 10
485.558599
 20
778.378123
 42
-0.202618
  0
SEQEND
  0
POLYLINE
  8
0
 66
1
 70
1
  0
VERTEX
  8
0
 10
455.000000
 20
769.000000
 42
-0.021149
  0
VERTEX
  8
0
 10
455.621859
 20
768.559769
 42
-0.167501
  0
VERTEX
  8
0
 10
455.812500
 20
768.269141
 42
-0.405416
  0
VERTEX
  8
0
 10
455.704915
 20
768.081977
 42
-0.066727
  0
VERTEX
  8
0
 10
455.250000
 20
768.015313
 42
0.087074
  0
VERTEX
  8
0
 10
454.772696
 20
767.925516
 42
0.093257
  0
VERTEX
  8
0
 10
454.367188
 20
767.679320
 42
0.098832
  0
VERTEX
  8
0
 10
454.095842
 20
767.316506
 42
0.111743
  0
VERTEX
  8
0
 10
454.000000
 20
766.893011
 42
0.154099
  0
VERTEX
  8
0
 10
454.118415
 20
766.517917
 42
0.152290
  0
VERTEX
  8
0
 10
454.431218
 20
766.276674
 42
0.114223
  0
VERTEX
  8
0
 10
454.906415
 20
766.215885
 42
0.066643
  0
VERTEX
  8
0
 10
455.467975
 20
766.349337
 42
-0.058345
  0
VERTEX
  8
0
 10
456.067840
 20
766.502412
 42
-0.067666
  0
VERTEX
  8
0
 10
456.656674
 20
766.501332
 42
-0.078646
  0
VERTEX
  8
0
 10
457.145472
 20
766.353375
 42
-0.142535
  0
VERTEX
  8
0
 10
457.453197
 20
766.075728
 42
0.187578
  0
VERTEX
  8
0
 10
458.622463
 20
765.193518
 42
0.047248
  0
VERTEX
  8
0
 10
461.011813
 20
764.756009
 42
0.038211
  0
VERTEX
  8
0
 10
464.231083
 20
764.722878
 42
0.021433
  0
VERTEX
  8
0
 10
468.122882
 20
765.148591
 42
-0.000163
  0
VERTEX
  8
0
 10
470.364896
 20
765.490850
 42
-0.000153
  0
VERTEX
  8
0
 10
472.654847
 20
765.838947
 42
-0.000152
  0
VERTEX
  8
0
 10
474.686109
 20
766.146453
 42
-0.000528
  0
VERTEX
  8
0
 10
476.000000
 20
766.343531
 42
0.015964
  0
VERTEX
  8
0
 10
477.085123
 20
766.540716
 42
0.011574
  0
VERTEX
  8
0
 10
478.279688
 20
766.826504
 42
0.011712
  0
VERTEX
  8
0
 10
479.402366
 20
767.151032
 42
0.024912
  0
VERTEX
  8
0
 10
480.250000
 20
767.464901
 42
-0.042722
  0
VERTEX
  8
0
 10
480.920886
 20
767.686521
 42
-0.081441
  0
VERTEX
  8
0
 10
481.485937
 20
767.726787
 42
-0.135059
  0
VERTEX
  8
0
 10
481.855761
 20
767.587636
 42
-0.240065
  0
VERTEX
  8
0
 10
482.000000
 20
767.304533
 42
-0.315761
  0
VERTEX
  8
0
 10
481.023138
 20
765.911922
 42
-0.023439
  0
VERTEX
  8
0
 10
476.336476
 20
764.459521
 42
-0.029425
  0
VERTEX
  8
0
 10
470.764727
 20
763.360135
 42
-0.034182
  0
VERTEX
  8
0
 10
465.375727
 20
762.995054
 42
-0.028437
  0
VERTEX
  8
0
 10
460.103148
 20
763.298840
 42
-0.035060
  0
VERTEX
  8
0
 10
455.263115
 20
764.202108
 42
-0.038673
  0
VERTEX
  8
0
 10
451.062286
 20
765.649921
 42
-0.058205
  0
VERTEX
  8
0
 10
447.714486
 20
767.591214
 42
-0.002354
  0
VERTEX
  8
0
 10
446.358863
 20
768.614244
 42
-0.174277
  0
VERTEX
  8
0
 10
446.210995
 20
768.842656
 42
-0.589942
  0
VERTEX
  8
0
 10
446.311255
 20
768.933150
 42
-0.005277
  0
VERTEX
  8
0
 10
447.500000
 20
768.509590
 42
0.006955
  0
VERTEX
  8
0
 10
450.662419
 20
767.394733
 42
0.074768
  0
VERTEX
  8
0
 10
451.996175
 20
767.157865
 42
0.356467
  0
VERTEX
  8
0
 10
452.467454
 20
767.522379
 42
0.149604
  0
VERTEX
  8
0
 10
452.407873
 20
768.379482
 42
-0.092074
  0
VERTEX
  8
0
 10
452.214300
 20
769.426734
 42
-0.346714
  0
VERTEX
  8
0
 10
452.600613
 20
769.916011
 42
-0.170429
  0
VERTEX
  8
0
 10
453.521611
 20
769.821136
 42
-0.033380
  0
SEQEND
  0
POLYLINE
  8
0
 66
1
 70
1
  0
VERTEX
  8
0
 10
485.500000
 20
769.000000
 42
-0.075854
  0
VERTEX
  8
0
 10
485.175433
 20
768.618541
 42
-0.054031
  0
VERTEX
  8
0
 10
484.713662
 20
768.298248
 42
-0.053889
  0
VERTEX
  8
0
 10
484.192374
 20
768.083483
 42
-0.074131
  0
VERTEX
  8
0
 10
483.690983
 20
768.015313
 42
-0.102799
  0
VERTEX
  8
0
 10
483.327599
 20
768.095709
 42
-0.379910
  0
VERTEX
  8
0
 10
483.239151
 20
768.292684
 42
-0.147021
  0
VERTEX
  8
0
 10
483.445888
 20
768.597454
 42
-0.027275
  0
VERTEX
  8
0
 10
484.000000
 20
769.000000
 42
-0.008108
  0
VERTEX
  8
0
 10
485.281145
 20
769.798791
 42
-0.136158
  0
VERTEX
  8
0
 10
485.758161
 20
769.931144
 42
-0.541951
  0
VERTEX
  8
0
 10
485.886554
 20
769.734105
 42
-0.034464
  0
SEQEND
  0
POLYLINE
  8
0
 66
1
 70
1
  0
VERTEX
  8
0
 10
463.729167
 20
704.395833
 42
-0.126455
  0
VERTEX
  8
0
 10
463.402231
 20
704.202593
 42
-0.060344
  0
VERTEX
  8
0
 10
462.916927
 20
704.123424
 42
-0.054150
  0
VERTEX
  8
0
 10
462.359369
 20
704.160852
 42
-0.051402
  0
VERTEX
  8
0
 10
461.812500
 20
704.316886
 42
-0.054073
  0
VERTEX
  8
0
 10
461.395823
 20
704.538436
 42
-0.470617
  0
VERTEX
  8
0
 10
461.378580
 20
704.720685
 42
-0.168741
  0
VERTEX
  8
0
 10
461.670344
 20
704.862007
 42
-0.018894
  0
VERTEX
  8
0
 10
462.416667
 20
704.921053
 42
-0.028489
  0
VERTEX
  8
0
 10
463.112848
 20
704.910055
 42
-0.077125
  0
VERTEX
  8
0
 10
463.592839
 20
704.799335
 42
-0.208169
  0
VERTEX
  8
0
 10
463.775380
 20
704.614691
 42
-0.296942
  0
SEQEND
  0
POLYLINE
  8
0
 66
1
 70
1
  0
VERTEX
  8
0
 10
477.500000
 20
704.000000
 42
-0.132187
  0
VERTEX
  8
0
 10
478.144577
 20
703.490687
 42
-0.616563
  0
VERTEX
  8
0
 10
477.987773
 20
703.178743
 42
-0.056364
  0
VERTEX
  8
0
 10
476.299060
 20
703.369713
 42
-0.021183
  0
VERTEX
  8
0
 10
474.000000
 20
704.000000
 42
-0.004584
  0
VERTEX
  8
0
 10
472.638787
 20
704.449736
 42
-0.176900
  0
VERTEX
  8
0
 10
472.393431
 20
704.647517
 42
-0.564240
  0
VERTEX
  8
0
 10
472.469886
 20
704.792510
 42
-0.010858
  0
VERTEX
  8
0
 10
473.500000
 20
704.830035
 42
-0.034995
  0
VERTEX
  8
0
 10
474.410457
 20
704.779667
 42
-0.019847
  0
VERTEX
  8
0
 10
475.500000
 20
704.598337
 42
-0.019741
  0
VERTEX
  8
0
 10
476.588662
 20
704.327209
 42
-0.030584
  0
SEQEND
  0
POLYLINE
  8
0
 66
1
 70
1
  0
VERTEX
  8
0
 10
756.355297
 20
684.750000
 42
-0.023564
  0
VERTEX
  8
0
 10
748.603888
 20
665.385621
 42
-0.019250
  0
VERTEX
  8
0
 10
738.569096
 20
645.452061
 42
-0.019110
  0
VERTEX
  8
0
 10
726.933752
 20
626.176460
 42
-0.022083
  0
VERTEX
  8
0
 10
714.373466
 20
608.784342
 42
-0.025114
  0
VERTEX
  8
0
 10
701.299486
 20
593.872916
 42
-0.014092
  0
VERTEX
  8
0
 10
684.037245
 20
577.048225
 42
-0.014070
  0
VERTEX
  8
0
 10
665.731263
 20
561.113939
 42
-0.023629
  0
VERTEX
  8
0
 10
649.395181
 20
548.929269
 42
-0.020110
  0
VERTEX
  8
0
 10
625.962144
 20
534.452720
 42
-0.023425
  0
VERTEX
  8
0
 10
602.582282
 20
522.684079
 42
-0.022920
  0
VERTEX
  8
0
 10
577.765338
 20
512.953760
 42
-0.017827
  0
VERTEX
  8
0
 10
550.000000
 20
504.602255
 42
-0.010313
  0
VERTEX
  8
0
 10
532.152124
 20
500.311970
 42
-0.015834
  0
VERTEX
  8
0
 10
516.524339
 20
497.409782
 42
-0.015357
  0
VERTEX
  8
0
 10
500.399938
 20
495.445254
 42
-0.008964
  0
VERTEX
  8
0
 10
480.976083
 20
494.032601
 42
-0.033823
  0
VERTEX
  8
0
 10
441.230677
 20
494.547239
 42
-0.032088
  0
VERTEX
  8
0
 10
401.198100
 20
500.381628
 42
-0.031847
  0
VERTEX
  8
0
 10
361.942538
 20
511.353659
 42
-0.032123
  0
VERTEX
  8
0
 10
324.515516
 20
527.197127
 42
-0.003503
  0
VERTEX
  8
0
 10
314.605739
 20
532.251844
 42
-0.010829
  0
VERTEX
  8
0
 10
308.012238
 20
535.856774
 42
-0.011311
  0
VERTEX
  8
0
 10
301.733959
 20
539.659644
 42
-0.004108
  0
VERTEX
  8
0
 10
293.000000
 20
545.325229
 42
-0.029199
  0
VERTEX
  8
0
 10
260.476704
 20
569.643962
 42
-0.034546
  0
VERTEX
  8
0
 10
232.904915
 20
596.352486
 42
-0.035204
  0
VERTEX
  8
0
 10
209.698027
 20
626.139880
 42
-0.032549
  0
VERTEX
  8
0
 10
190.221785
 20
659.656392
 42
-0.007879
  0
VERTEX
  8
0
 10
185.540994
 20
669.457041
 42
-0.009682
  0
VERTEX
  8
0
 10
181.495401
 20
678.753826
 42
-0.004615
  0
VERTEX
  8
0
 10
178.192953
 20
686.977861
 42
-0.178033
  0
VERTEX
  8
0
 10
178.153509
 20
688.925664
 42
-0.541760
  0
VERTEX
  8
0
 10
178.529687
 20
689.019989
 42
-0.012994
  0
VERTEX
  8
0
 10
180.070814
 20
687.515722
 42
-0.016708
  0
VERTEX
  8
0
 10
181.984625
 20
685.411747
 42
-0.009148
  0
VERTEX
  8
0
 10
184.193944
 20
682.715136
 42
0.026848
  0
VERTEX
  8
0
 10
193.981192
 20
671.596144
 42
0.030113
  0
VERTEX
  8
0
 10
204.554948
 20
662.035531
 42
0.029490
  0
VERTEX
  8
0
 10
216.399796
 20
653.651611
 42
0.023865
  0
VERTEX
  8
0
 10
230.000000
 20
646.057355
 42
0.027943
  0
VERTEX
  8
0
 10
249.131987
 20
637.840287
 42
0.034671
  0
VERTEX
  8
0
 10
267.745267
 20
632.478175
 42
0.034527
  0
VERTEX
  8
0
 10
286.985275
 20
629.724735
 42
0.027335
  0
VERTEX
  8
0
 10
308.000000
 20
629.336699
 42
0.038427
  0
VERTEX
  8
0
 10
333.070771
 20
632.182065
 42
0.042024
  0
VERTEX
  8
0
 10
356.644662
 20
638.803519
 42
0.041780
  0
VERTEX
  8
0
 10
378.897409
 20
649.316026
 42
0.037171
  0
VERTEX
  8
0
 10
400.033760
 20
663.750000
 42
-0.004012
  0
VERTEX
  8
0
 10
403.574104
 20
666.528664
 42
-0.006173
  0
VERTEX
  8
0
 10
406.686122
 20
668.870312
 42
-0.002399
  0
VERTEX
  8
0
 10
409.379920
 20
670.825858
 42
-0.157055
  0
VERTEX
  8
0
 10
409.920642
 20
671.000000
 42
-0.297211
  0
VERTEX
  8
0
 10
410.331736
 20
670.731959
 42
-0.005050
  0
VERTEX
  8
0
 10
411.444992
 20
668.135937
 42
-0.011070
  0
VERTEX
  8
0
 10
412.676530
 20
664.987610
 42
-0.006913
  0
VERTEX
  8
0
 10
413.985671
 20
661.250000
 42
0.012734
  0
VERTEX
  8
0
 10
421.265006
 20
641.217977
 42
0.017180
  0
VERTEX
  8
0
 10
428.921820
 20
623.522478
 42
0.017764
  0
VERTEX
  8
0
 10
437.553978
 20
606.870731
 42
0.015286
  0
VERTEX
  8
0
 10
447.766738
 20
590.000000
 42
0.006962
  0
VERTEX
  8
0
 10
454.450561
 20
579.992423
 42
0.007435
  0
VERTEX
  8
0
 10
461.268735
 20
570.393963
 42
0.002196
  0
VERTEX
  8
0
 10
467.743293
 20
561.641306
 42
0.236653
  0
VERTEX
  8
0
 10
469.022357
 20
561.000000
 42
0.250376
  0
VERTEX
  8
0
 10
470.165579
 20
561.610757
 42
0.000841
  0
VERTEX
  8
0
 10
479.244032
 20
575.234878
 42
0.004957
  0
VERTEX
  8
0
 10
487.786468
 20
588.382473
 42
0.009275
  0
VERTEX
  8
0
 10
494.392623
 20
599.212601
 42
0.012948
  0
VERTEX
  8
0
 10
500.935269
 20
611.095996
 42
0.010145
  0
VERTEX
  8
0
 10
507.431018
 20
624.303028
 42
0.010092
  0
VERTEX
  8
0
 10
513.428144
 20
637.854851
 42
0.012294
  0
VERTEX
  8
0
 10
518.469287
 20
650.780829
 42
0.002752
  0
VERTEX
  8
0
 10
520.588592
 20
656.738513
 42
0.004073
  0
VERTEX
  8
0
 10
522.375353
 20
661.987148
 42
0.001882
  0
VERTEX
  8
0
 10
523.842324
 20
666.470733
 42
0.078270
  0
VERTEX
  8
0
 10
524.000000
 20
667.471812
 42
-0.218144
  0
VERTEX
  8
0
 10
524.592471
 20
668.765173
 42
-0.279936
  0
VERTEX
  8
0
 10
525.857064
 20
668.976760
 42
-0.067246
  0
VERTEX
  8
0
 10
528.362560
 20
667.560755
 42
-0.009246
  0
VERTEX
  8
0
 10
533.082557
 20
663.842874
 42
0.044229
  0
VERTEX
  8
0
 10
557.501452
 20
647.234422
 42
0.049135
  0
VERTEX
  8
0
 10
583.637689
 20
635.853466
 42
0.049404
  0
VERTEX
  8
0
 10
611.363568
 20
629.834585
 42
0.045604
  0
VERTEX
  8
0
 10
640.500000
 20
629.138232
 42
0.037860
  0
VERTEX
  8
0
 10
666.663962
 20
632.903618
 42
0.042374
  0
VERTEX
  8
0
 10
690.955856
 20
640.506271
 42
0.043003
  0
VERTEX
  8
0
 10
713.308831
 20
651.972501
 42
0.041263
  0
VERTEX
  8
0
 10
733.703898
 20
667.233581
 42
0.019011
  0
VERTEX
  8
0
 10
740.340753
 20
673.578200
 42
0.013238
  0
VERTEX
  8
0
 10
747.356467
 20
681.209184
 42
0.013081
  0
VERTEX
  8
0
 10
753.527931
 20
688.674823
 42
0.037793
  0
VERTEX
  8
0
 10
757.253319
 20
694.250000
 42
-0.037415
  0
VERTEX
  8
0
 10
759.347177
 20
697.388661
 42
-0.749503
  0
VERTEX
  8
0
 10
760.023845
 20
697.119427
 42
-0.054647
  0
VERTEX
  8
0
 10
759.264076
 20
693.436381
 42
-0.005255
  0
SEQEND
  0
POLYLINE
  8
0
 66
1
 70
1
  0
VERTEX
  8
0
 10
143.423536
 20
694.750000
 42
0.026197
  0
VERTEX
  8
0
 10
154.111225
 20
663.885866
 42
0.027229
  0
VERTEX
  8
0
 10
167.850224
 20
634.716359
 42
0.027016
  0
VERTEX
  8
0
 10
184.788798
 20
607.004808
 42
0.024939
  0
VERTEX
  8
0
 10
205.044065
 20
580.500000
 42
0.017590
  0
VERTEX
  8
0
 10
214.075545
 20
570.560646
 42
0.008237
  0
VERTEX
  8
0
 10
226.416214
 20
558.314137
 42
0.008250
  0
VERTEX
  8
0
 10
239.386598
 20
546.264931
 42
0.014713
  0
VERTEX
  8
0
 10
250.500000
 20
536.853341
 42
0.018671
  0
VERTEX
  8
0
 10
268.946932
 20
523.235696
 42
0.015306
  0
VERTEX
  8
0
 10
289.603136
 20
510.055016
 42
0.015275
  0
VERTEX
  8
0
 10
311.080876
 20
498.131151
 42
0.018322
  0
VERTEX
  8
0
 10
332.000000
 20
488.292576
 42
0.023416
  0
VERTEX
  8
0
 10
356.260984
 20
479.267027
 42
0.018683
  0
VERTEX
  8
0
 10
383.150911
 20
471.767981
 42
0.018138
  0
VERTEX
  8
0
 10
411.448843
 20
466.080721
 42
0.018407
  0
VERTEX
  8
0
 10
439.946247
 20
462.492495
 42
0.013838
  0
VERTEX
  8
0
 10
460.428423
 20
461.246218
 42
0.019312
  0
VERTEX
  8
0
 10
478.780086
 20
461.347555
 42
0.017869
  0
VERTEX
  8
0
 10
498.114536
 20
462.895222
 42
0.009678
  0
VERTEX
  8
0
 10
521.761536
 20
466.106322
 42
0.018968
  0
VERTEX
  8
0
 10
553.294185
 20
472.244461
 42
0.023800
  0
VERTEX
  8
0
 10
581.929467
 20
480.409830
 42
0.023444
  0
VERTEX
  8
0
 10
610.004757
 20
491.371921
 42
0.017522
  0
VERTEX
  8
0
 10
639.862252
 20
505.948645
 42
0.040471
  0
VERTEX
  8
0
 10
679.904169
 20
531.620441
 42
0.036794
  0
VERTEX
  8
0
 10
716.675028
 20
564.168984
 42
0.037026
  0
VERTEX
  8
0
 10
748.049570
 20
601.519609
 42
0.042407
  0
VERTEX
  8
0
 10
772.008376
 20
641.500000
 42
0.011844
  0
VERTEX
  8
0
 10
779.146053
 20
657.004889
 42
0.011057
  0
VERTEX
  8
0
 10
785.715197
 20
673.186958
 42
0.008516
  0
VERTEX
  8
0
 10
790.934847
 20
687.643969
 42
0.082549
  0
VERTEX
  8
0
 10
792.000000
 20
694.051622
 42
-0.125361
  0
VERTEX
  8
0
 10
792.259077
 20
695.068709
 42
-0.184570
  0
VERTEX
  8
0
 10
792.952507
 20
695.661033
 42
-0.075576
  0
VERTEX
  8
0
 10
794.384333
 20
695.937928
 42
-0.010041
  0
VERTEX
  8
0
 10
797.475000
 20
696.000000
 42
0.000000
  0
VERTEX
  8
0
 10
802.950000
 20
696.000000
 42
0.000000
  0
VERTEX
  8
0
 10
802.368974
 20
692.750000
 42
-0.024221
  0
VERTEX
  8
0
 10
798.130001
 20
674.258015
 42
-0.014787
  0
VERTEX
  8
0
 10
791.438717
 20
652.880382
 42
-0.014480
  0
VERTEX
  8
0
 10
783.212103
 20
631.148170
 42
-0.018054
  0
VERTEX
  8
0
 10
774.273794
 20
611.500000
 42
-0.003406
  0
VERTEX
  8
0
 10
768.782580
 20
600.685824
 42
-0.011718
  0
VERTEX
  8
0
 10
765.009093
 20
593.780103
 42
-0.011783
  0
VERTEX
  8
0
 10
760.926823
 20
587.078169
 42
-0.003474
  0
VERTEX
  8
0
 10
754.358295
 20
577.000000
 42
-0.042669
  0
VERTEX
  8
0
 10
720.808582
 20
534.639293
 42
-0.042650
  0
VERTEX
  8
0
 10
680.550404
 20
498.581272
 42
-0.041593
  0
VERTEX
  8
0
 10
633.773405
 20
469.121915
 42
-0.036761
  0
VERTEX
  8
0
 10
580.826561
 20
446.398288
 42
-0.018774
  0
VERTEX
  8
0
 10
564.157479
 20
441.344571
 42
-0.011504
  0
VERTEX
  8
0
 10
544.177020
 20
436.585690
 42
-0.011253
  0
VERTEX
  8
0
 10
523.218454
 20
432.591696
 42
-0.013846
  0
VERTEX
  8
0
 10
503.500000
 20
429.850894
 42
-0.021359
  0
VERTEX
  8
0
 10
489.358949
 20
428.891945
 42
-0.006219
  0
VERTEX
  8
0
 10
467.526802
 20
428.617718
 42
-0.006288
  0
VERTEX
  8
0
 10
445.615616
 20
428.890612
 42
-0.019989
  0
VERTEX
  8
0
 10
431.000000
 20
429.842018
 42
-0.018838
  0
VERTEX
  8
0
 10
407.174018
 20
433.263998
 42
-0.016051
  0
VERTEX
  8
0
 10
382.351916
 20
438.617440
 42
-0.016236
  0
VERTEX
  8
0
 10
358.284505
 20
445.459677
 42
-0.021032
  0
VERTEX
  8
0
 10
336.741761
 20
453.360381
 42
-0.013629
  0
VERTEX
  8
0
 10
325.349075
 20
458.459367
 42
-0.005280
  0
VERTEX
  8
0
 10
309.844813
 20
466.114791
 42
-0.005183
  0
VERTEX
  8
0
 10
294.671510
 20
474.005908
 42
-0.015977
  0
VERTEX
  8
0
 10
284.646784
 20
479.770830
 42
-0.012153
  0
VERTEX
  8
0
 10
265.972963
 20
491.955795
 42
-0.017286
  0
VERTEX
  8
0
 10
250.044631
 20
503.741375
 42
-0.017293
  0
VERTEX
  8
0
 10
234.973206
 20
516.595513
 42
-0.012176
  0
VERTEX
  8
0
 10
218.902856
 20
532.026289
 42
-0.029896
  0
VERTEX
  8
0
 10
194.600633
 20
559.646980
 42
-0.030961
  0
VERTEX
  8
0
 10
174.072333
 20
589.659731
 42
-0.030514
  0
VERTEX
  8
0
 10
157.155322
 20
622.394724
 42
-0.027346
  0
VERTEX
  8
0
 10
143.643582
 20
658.150579
 42
-0.007426
  0
VERTEX
  8
0
 10
140.506483
 20
668.595611
 42
-0.005226
  0
VERTEX
  8
0
 10
137.276099
 20
680.430256
 42
-0.002836
  0
VERTEX
  8
0
 10
134.414350
 20
691.621698
 42
-0.061244
  0
VERTEX
  8
0
 10
134.000000
 20
694.991772
 42
-0.389950
  0
VERTEX
  8
0
 10
134.824912
 20
695.888651
 42
-0.027306
  0
VERTEX
  8
0
 10
138.548734
 20
695.996480
 42
-0.026974
  0
VERTEX
  8
0
 10
142.327688
 20
695.695097
 42
-0.297406
  0
SEQEND
  0
POLYLINE
  8
0
 66
1
 70
1
  0
VERTEX
  8
0
 10
493.683114
 20
681.812500
 42
-0.054073
  0
VERTEX
  8
0
 10
493.461564
 20
681.395823
 42
-0.470617
  0
VERTEX
  8
0
 10
493.279315
 20
681.378580
 42
-0.168741
  0
VERTEX
  8
0
 10
493.137993
 20
681.670344
 42
-0.018894
  0
VERTEX
  8
0
 10
493.078947
 20
682.416667
 42
-0.028489
  0
VERTEX
  8
0
 10
493.089945
 20
683.112848
 42
-0.077125
  0
VERTEX
  8
0
 10
493.200665
 20
683.592839
 42
-0.208169
  0
VERTEX
  8
0
 10
493.385309
 20
683.775380
 42
-0.296942
  0
VERTEX
  8
0
 10
493.604167
 20
683.729167
 42
-0.126455
  0
VERTEX
  8
0
 10
493.797407
 20
683.402231
 42
-0.060344
  0
VERTEX
  8
0
 10
493.876576
 20
682.916927
 42
-0.054150
  0
VERTEX
  8
0
 10
493.839148
 20
682.359369
 42
-0.051402
  0
SEQEND
  0
POLYLINE
  8
0
 66
1
 70
1
  0
VERTEX
  8
0
 10
483.841809
 20
651.976057
 42
-0.022803
  0
VERTEX
  8
0
 10
483.365396
 20
650.786817
 42
-0.024637
  0
VERTEX
  8
0
 10
482.793453
 20
649.677097
 42
-0.025157
  0
VERTEX
  8
0
 10
482.212478
 20
648.781483
 42
-0.098180
  0
VERTEX
  8
0
 10
481.731595
 20
648.334117
 42
-0.098143
  0
VERTEX
  8
0
 10
481.326432
 20
648.182576
 42
-0.398944
  0
VERTEX
  8
0
 10
481.128461
 20
648.317126
 42
-0.133196
  0
VERTEX
  8
0
 10
481.150435
 20
648.754809
 42
-0.020065
  0
VERTEX
  8
0
 10
481.458657
 20
649.585955
 42
0.015409
  0
VERTEX
  8
0
 10
481.799668
 20
650.479900
 42
0.008414
  0
VERTEX
  8
0
 10
482.165313
 20
651.595263
 42
0.008378
  0
VERTEX
  8
0
 10
482.499080
 20
652.742138
 42
0.013187
  0
VERTEX
  8
0
 10
482.742945
 20
653.738345
 42
-0.038568
  0
VERTEX
  8
0
 10
482.988727
 20
654.559580
 42
-0.070470
  0
VERTEX
  8
0
 10
483.328624
 20
655.169232
 42
-0.113261
  0
VERTEX
  8
0
 10
483.701762
 20
655.480930
 42
-0.261726
  0
VERTEX
  8
0
 10
484.054624
 20
655.466241
 42
-0.226936
  0
VERTEX
  8
0
 10
484.305897
 20
655.075004
 42
-0.046407
  0
VERTEX
  8
0
 10
484.332804
 20
654.230438
 42
-0.040413
  0
VERTEX
  8
0
 10
484.179338
 20
653.154523
 42
-0.028249
  0
SEQEND
  0
POLYLINE
  8
0
 66
1
 70
1
  0
VERTEX
  8
0
 10
472.122073
 20
628.325003
 42
-0.022794
  0
VERTEX
  8
0
 10
471.370907
 20
627.158973
 42
-0.582659
  0
VERTEX
  8
0
 10
471.068872
 20
627.189955
 42
-0.183920
  0
VERTEX
  8
0
 10
471.038161
 20
627.807875
 42
-0.013074
  0
VERTEX
  8
0
 10
471.623539
 20
629.461341
 42
-0.033338
  0
VERTEX
  8
0
 10
471.896209
 20
630.051117
 42
-0.064271
  0
VERTEX
  8
0
 10
472.201425
 20
630.471425
 42
-0.109577
  0
VERTEX
  8
0
 10
472.487156
 20
630.665262
 42
-0.299281
  0
VERTEX
  8
0
 10
472.715202
 20
630.618131
 42
-0.217548
  0
VERTEX
  8
0
 10
472.826923
 20
630.318576
 42
-0.045448
  0
VERTEX
  8
0
 10
472.734072
 20
629.751423
 42
-0.039963
  0
VERTEX
  8
0
 10
472.494276
 20
629.058111
 42
-0.028467
  0
SEQEND
  0
POLYLINE
  8
0
 66
1
 70
1
  0
VERTEX
  8
0
 10
468.381557
 20
623.448062
 42
-0.036408
  0
VERTEX
  8
0
 10
468.556862
 20
622.868281
 42
-0.155351
  0
VERTEX
  8
0
 10
468.525685
 20
622.512472
 42
-0.329480
  0
VERTEX
  8
0
 10
468.325929
 20
622.393111
 42
-0.114400
  0
VERTEX
  8
0
 10
467.988546
 20
622.507079
 42
-0.061454
  0
VERTEX
  8
0
 10
467.610411
 20
622.810572
 42
-0.051183
  0
VERTEX
  8
0
 10
467.290385
 20
623.214980
 42
-0.053277
  0
VERTEX
  8
0
 10
467.072509
 20
623.653950
 42
-0.088797
  0
VERTEX
  8
0
 10
467.000000
 20
624.059017
 42
-0.079093
  0
VERTEX
  8
0
 10
467.117673
 20
624.798253
 42
-0.444011
  0
VERTEX
  8
0
 10
467.441482
 20
624.942608
 42
-0.168622
  0
VERTEX
  8
0
 10
467.894727
 20
624.519970
 42
-0.029964
  0
SEQEND
  0
POLYLINE
  8
0
 66
1
 70
1
  0
VERTEX
  8
0
 10
683.611153
 20
450.250000
 42
0.035822
  0
VERTEX
  8
0
 10
681.378517
 20
432.481614
 42
0.009932
  0
VERTEX
  8
0
 10
680.436246
 20
404.380303
 42
0.010355
  0
VERTEX
  8
0
 10
680.638495
 20
375.714881
 42
0.026394
  0
VERTEX
  8
0
 10
682.310487
 20
355.000000
 42
0.012784
  0
VERTEX
  8
0
 10
685.799814
 20
333.223135
 42
0.013531
  0
VERTEX
  8
0
 10
690.342861
 20
312.064939
 42
0.014110
  0
VERTEX
  8
0
 10
695.793458
 20
292.121402
 42
0.017724
  0
VERTEX
  8
0
 10
702.009588
 20
274.000000
 42
-0.001739
  0
VERTEX
  8
0
 10
704.061081
 20
268.589426
 42
-0.002103
  0
VERTEX
  8
0
 10
705.947283
 20
263.497106
 42
-0.001782
  0
VERTEX
  8
0
 10
707.501618
 20
259.198490
 42
-0.014390
  0
VERTEX
  8
0
 10
708.151035
 20
257.202913
 42
0.036274
  0
VERTEX
  8
0
 10
708.945074
 20
255.082813
 42
0.002528
  0
VERTEX
  8
0
 10
711.633467
 20
249.311495
 42
0.003578
  0
VERTEX
  8
0
 10
714.926382
 20
242.462230
 42
0.002685
  0
VERTEX
  8
0
 10
718.645433
 20
234.968461
 42
0.000000
  0
VERTEX
  8
0
 10
728.170855
 20
216.031096
 42
0.000000
  0
VERTEX
  8
0
 10
721.527275
 20
206.502237
 42
-0.021212
  0
VERTEX
  8
0
 10
704.221961
 20
183.797971
 42
-0.020391
  0
VERTEX
  8
0
 10
684.835921
 20
162.329132
 42
-0.019966
  0
VERTEX
  8
0
 10
663.348299
 20
142.084106
 42
-0.018430
  0
VERTEX
  8
0
 10
639.748901
 20
123.045041
 42
0.000000
  0
VERTEX
  8
0
 10
629.997801
 20
115.754658
 42
0.000000
  0
VERTEX
  8
0
 10
624.748901
 20
118.030604
 42
0.064562
  0
VERTEX
  8
0
 10
618.814898
 20
119.738175
 42
0.031592
  0
VERTEX
  8
0
 10
610.961780
 20
120.431686
 42
0.031306
  0
VERTEX
  8
0
 10
602.827172
 20
120.125092
 42
0.048745
  0
VERTEX
  8
0
 10
595.953220
 20
118.748300
 42
0.043542
  0
VERTEX
  8
0
 10
590.011990
 20
116.360704
 42
0.031983
  0
VERTEX
  8
0
 10
583.894983
 20
112.751218
 42
0.032369
  0
VERTEX
  8
0
 10
578.400794
 20
108.471734
 42
0.050801
  0
VERTEX
  8
0
 10
574.355482
 20
104.066364
 42
-0.007218
  0
VERTEX
  8
0
 10
572.861786
 20
102.124729
 42
-0.011015
  0
VERTEX
  8
0
 10
571.505063
 20
100.488245
 42
-0.005796
  0
VERTEX
  8
0
 10
570.327299
 20
99.161077
 42
-0.211413
  0
VERTEX
  8
0
 10
569.963371
 20
99.000000
 42
-0.203162
  0
VERTEX
  8
0
 10
569.590879
 20
99.157868
 42
-0.004977
  0
VERTEX
  8
0
 10
568.282665
 20
100.536753
 42
-0.010013
  0
VERTEX
  8
0
 10
566.773095
 20
102.226551
 42
-0.006551
  0
VERTEX
  8
0
 10
565.098021
 20
104.231498
 42
0.052380
  0
VERTEX
  8
0
 10
558.131144
 20
111.168306
 42
0.061136
  0
VERTEX
  8
0
 10
550.206986
 20
116.097255
 42
0.060194
  0
VERTEX
  8
0
 10
541.220177
 20
119.016519
 42
0.048499
  0
VERTEX
  8
0
 10
531.104764
 20
120.000000
 42
0.037120
  0
VERTEX
  8
0
 10
521.715994
 20
119.302010
 42
0.048287
  0
VERTEX
  8
0
 10
513.355193
 20
117.212401
 42
0.050924
  0
VERTEX
  8
0
 10
505.908666
 20
113.677833
 42
0.049332
  0
VERTEX
  8
0
 10
499.243684
 20
108.678959
 42
0.044549
  0
VERTEX
  8
0
 10
493.435844
 20
102.313955
 42
0.047294
  0
VERTEX
  8
0
 10
488.977763
 20
95.141220
 42
0.046827
  0
VERTEX
  8
0
 10
485.913002
 20
87.192397
 42
0.042098
  0
VERTEX
  8
0
 10
484.243234
 20
78.522592
 42
0.000000
  0
VERTEX
  8
0
 10
483.500000
 20
71.545185
 42
0.000000
  0
VERTEX
  8
0
 10
478.000000
 20
70.299676
 42
-0.025052
  0
VERTEX
  8
0
 10
474.943415
 20
69.766788
 42
-0.026157
  0
VERTEX
  8
0
 10
471.892667
 20
69.552244
 42
-0.022602
  0
VERTEX
  8
0
 10
468.473101
 20
69.645581
 42
-0.012066
  0
VERTEX
  8
0
 10
464.262564
 20
70.053647
 42
-0.006455
  0
VERTEX
  8
0
 10
456.819724
 20
71.054378
 42
-0.099295
  0
VERTEX
  8
0
 10
454.395690
 20
71.924155
 42
-0.212930
  0
VERTEX
  8
0
 10
453.303860
 20
73.490470
 42
-0.046007
  0
VERTEX
  8
0
 10
452.975554
 20
76.856989
 42
0.050831
  0
VERTEX
  8
0
 10
452.124831
 20
84.789343
 42
0.047644
  0
VERTEX
  8
0
 10
449.687105
 20
92.569726
 42
0.046721
  0
VERTEX
  8
0
 10
445.762353
 20
99.888713
 42
0.044989
  0
VERTEX
  8
0
 10
440.503062
 20
106.452449
 42
0.088316
  0
VERTEX
  8
0
 10
429.051548
 20
114.787745
 42
0.073408
  0
VERTEX
  8
0
 10
414.668548
 20
119.338976
 42
0.072804
  0
VERTEX
  8
0
 10
399.467098
 20
119.560268
 42
0.084159
  0
VERTEX
  8
0
 10
385.637047
 20
115.301538
 42
0.050191
  0
VERTEX
  8
0
 10
381.513387
 20
112.676173
 42
0.016379
  0
VERTEX
  8
0
 10
375.989976
 20
108.023947
 42
0.015951
  0
VERTEX
  8
0
 10
370.825735
 20
103.069727
 42
0.059132
  0
VERTEX
  8
0
 10
368.077346
 20
99.500000
 42
-0.022300
  0
VERTEX
  8
0
 10
367.460818
 20
98.564279
 42
-0.149538
  0
VERTEX
  8
0
 10
367.021668
 20
98.232693
 42
-0.308193
  0
VERTEX
  8
0
 10
366.655796
 20
98.325358
 42
-0.083435
  0
VERTEX
  8
0
 10
366.322102
 20
98.859571
 42
0.073634
  0
VERTEX
  8
0
 10
364.372100
 20
102.121077
 42
0.020126
  0
VERTEX
  8
0
 10
360.380616
 20
106.616301
 42
0.021123
  0
VERTEX
  8
0
 10
355.864876
 20
110.927227
 42
0.044414
  0
VERTEX
  8
0
 10
351.952935
 20
113.786610
 42
0.031689
  0
VERTEX
  8
0
 10
345.976373
 20
116.890951
 42
0.040634
  0
VERTEX
  8
0
 10
340.124078
 20
118.924852
 42
0.038987
  0
VERTEX
  8
0
 10
333.827863
 20
120.040168
 42
0.025924
  0
VERTEX
  8
0
 10
326.500000
 20
120.374191
 42
0.012098
  0
VERTEX
  8
0
 10
321.978666
 20
120.236337
 42
0.023009
  0
VERTEX
  8
0
 10
318.358426
 20
119.870590
 42
0.027331
  0
VERTEX
  8
0
 10
315.247347
 20
119.235582
 42
0.029635
  0
VERTEX
  8
0
 10
312.309180
 20
118.277375
 42
0.000000
  0
VERTEX
  8
0
 10
307.118360
 20
116.237121
 42
0.000000
  0
VERTEX
  8
0
 10
297.809180
 20
123.275573
 42
-0.015624
  0
VERTEX
  8
0
 10
274.683227
 20
141.924058
 42
-0.019402
  0
VERTEX
  8
0
 10
254.439050
 20
160.733168
 42
-0.020194
  0
VERTEX
  8
0
 10
236.401994
 20
180.370559
 42
-0.019877
  0
VERTEX
  8
0
 10
219.907867
 20
201.500000
 42
-0.002603
  0
VERTEX
  8
0
 10
212.409600
 20
212.050833
 42
-0.076466
  0
VERTEX
  8
0
 10
210.950745
 20
214.995214
 42
-0.185961
  0
VERTEX
  8
0
 10
211.101196
 20
217.485646
 42
-0.029467
  0
VERTEX
  8
0
 10
213.434486
 20
221.892152
 42
0.028410
  0
VERTEX
  8
0
 10
222.691636
 20
239.285735
 42
0.013356
  0
VERTEX
  8
0
 10
232.743730
 20
262.696654
 42
0.013270
  0
VERTEX
  8
0
 10
241.891314
 20
287.577060
 42
0.019759
  0
VERTEX
  8
0
 10
248.440723
 20
309.827075
 42
0.013496
  0
VERTEX
  8
0
 10
253.444590
 20
332.228328
 42
0.020659
  0
VERTEX
  8
0
 10
256.446445
 20
351.895513
 42
0.018898
  0
VERTEX
  8
0
 10
257.974124
 20
372.970955
 42
0.009153
  0
VERTEX
  8
0
 10
258.413733
 20
400.000000
 42
0.003249
  0
VERTEX
  8
0
 10
258.302752
 20
412.995463
 42
0.003846
  0
VERTEX
  8
0
 10
258.023569
 20
425.276362
 42
0.003700
  0
VERTEX
  8
0
 10
257.631561
 20
435.635994
 42
0.018749
  0
VERTEX
  8
0
 10
257.154023
 20
441.395993
 42
-0.005369
  0
VERTEX
  8
0
 10
256.733038
 20
445.226174
 42
-0.008358
  0
VERTEX
  8
0
 10
256.460939
 20
448.536184
 42
-0.003475
  0
VERTEX
  8
0
 10
256.296706
 20
451.347416
 42
-0.212307
  0
VERTEX
  8
0
 10
256.473195
 20
451.806528
 42
-0.249846
  0
VERTEX
  8
0
 10
256.789908
 20
451.903019
 42
-0.054629
  0
VERTEX
  8
0
 10
257.352455
 20
451.727098
 42
-0.044682
  0
VERTEX
  8
0
 10
258.033693
 20
451.353572
 42
-0.029638
  0
VERTEX
  8
0
 10
258.743869
 20
450.813578
 42
0.046663
  0
VERTEX
  8
0
 10
265.458041
 20
446.059669
 42
0.005818
  0
VERTEX
  8
0
 10
281.057858
 20
437.308998
 42
0.007433
  0
VERTEX
  8
0
 10
298.096333
 20
428.336392
 42
0.011726
  0
VERTEX
  8
0
 10
313.000000
 20
421.203334
 42
0.018294
  0
VERTEX
  8
0
 10
328.364613
 20
414.952988
 42
0.009961
  0
VERTEX
  8
0
 10
347.636952
 20
408.354972
 42
0.009898
  0
VERTEX
  8
0
 10
367.595792
 20
402.396122
 42
0.015035
  0
VERTEX
  8
0
 10
385.178254
 20
398.088398
 42
0.014559
  0
VERTEX
  8
0
 10
404.553085
 20
394.541068
 42
0.015552
  0
VERTEX
  8
0
 10
423.680403
 20
392.217902
 42
0.014103
  0
VERTEX
  8
0
 10
444.477637
 20
390.935995
 42
0.008686
  0
VERTEX
  8
0
 10
469.000000
 20
390.543960
 42
0.018568
  0
VERTEX
  8
0
 10
507.557271
 20
392.029835
 42
0.025799
  0
VERTEX
  8
0
 10
541.835977
 20
396.415013
 42
0.025948
  0
VERTEX
  8
0
 10
575.328937
 20
404.282123
 42
0.019112
  0
VERTEX
  8
0
 10
611.500000
 20
416.301334
 42
0.018666
  0
VERTEX
  8
0
 10
628.462566
 20
423.400246
 42
0.009479
  0
VERTEX
  8
0
 10
649.268958
 20
433.518739
 42
0.008753
  0
VERTEX
  8
0
 10
668.767917
 20
443.896845
 42
0.036581
  0
VERTEX
  8
0
 10
679.884859
 20
451.176194
 42
-0.024309
  0
VERTEX
  8
0
 10
682.070100
 20
452.684911
 42
-0.202521
  0
VERTEX
  8
0
 10
683.232814
 20
452.867801
 42
-0.341708
  0
VERTEX
  8
0
 10
683.790024
 20
452.162509
 42
-0.051724
  0
SEQEND
  0
POLYLINE
  8
0
 66
1
 70
1
  0
VERTEX
  8
0
 10
332.056846
 20
90.000752
 42
-0.073606
  0
VERTEX
  8
0
 10
335.302039
 20
88.559646
 42
-0.060918
  0
VERTEX
  8
0
 10
338.230181
 20
86.159896
 42
-0.056844
  0
VERTEX
  8
0
 10
340.667192
 20
82.947484
 42
-0.049101
  0
VERTEX
  8
0
 10
342.461154
 20
79.110101
 42
-0.044931
  0
VERTEX
  8
0
 10
343.556832
 20
74.808028
 42
-0.040332
  0
VERTEX
  8
0
 10
343.919939
 20
70.219167
 42
-0.033184
  0
VERTEX
  8
0
 10
343.555762
 20
64.871827
 42
-0.016759
  0
VERTEX
  8
0
 10
342.426542
 20
58.207842
 42
-0.038817
  0
VERTEX
  8
0
 10
339.589289
 20
48.302458
 42
-0.020123
  0
VERTEX
  8
0
 10
334.612428
 20
36.425309
 42
-0.010961
  0
VERTEX
  8
0
 10
329.130479
 20
25.331782
 42
-0.368336
  0
VERTEX
  8
0
 10
326.587685
 20
24.304105
 42
-0.184452
  0
VERTEX
  8
0
 10
325.166058
 20
25.469213
 42
-0.007838
  0
VERTEX
  8
0
 10
321.973112
 20
31.261954
 42
-0.013887
  0
VERTEX
  8
0
 10
318.722037
 20
37.818650
 42
-0.015454
  0
VERTEX
  8
0
 10
315.961349
 20
44.318594
 42
-0.016779
  0
VERTEX
  8
0
 10
313.501299
 20
51.335993
 42
-0.027939
  0
VERTEX
  8
0
 10
311.965646
 20
57.406819
 42
-0.028485
  0
VERTEX
  8
0
 10
311.134702
 20
63.527253
 42
-0.018321
  0
VERTEX
  8
0
 10
310.838543
 20
70.685919
 42
-0.035202
  0
VERTEX
  8
0
 10
311.284508
 20
77.467500
 42
-0.075825
  0
VERTEX
  8
0
 10
312.764598
 20
82.474813
 42
-0.092504
  0
VERTEX
  8
0
 10
315.427794
 20
86.179768
 42
-0.076003
  0
VERTEX
  8
0
 10
319.423711
 20
88.980654
 42
-0.034748
  0
VERTEX
  8
0
 10
322.643223
 20
90.304701
 42
-0.060105
  0
VERTEX
  8
0
 10
325.475610
 20
90.880739
 42
-0.057953
  0
VERTEX
  8
0
 10
328.434406
 20
90.776536
 42
-0.030006
  0
SEQEND
  0
POLYLINE
  8
0
 66
1
 70
1
  0
VERTEX
  8
0
 10
411.346655
 20
90.059655
 42
-0.199634
  0
VERTEX
  8
0
 10
419.943648
 20
83.894827
 42
-0.119631
  0
VERTEX
  8
0
 10
423.914870
 20
71.768317
 42
-0.083337
  0
VERTEX
  8
0
 10
422.447365
 20
55.124324
 42
-0.050232
  0
VERTEX
  8
0
 10
415.551457
 20
36.500000
 42
-0.004883
  0
VERTEX
  8
0
 10
413.750228
 20
32.907519
 42
-0.005818
  0
VERTEX
  8
0
 10
411.979192
 20
29.556250
 42
-0.005077
  0
VERTEX
  8
0
 10
410.426008
 20
26.766128
 42
-0.037249
  0
VERTEX
  8
0
 10
409.573544
 20
25.500000
 42
-0.022731
  0
VERTEX
  8
0
 10
408.526146
 20
24.287545
 42
-0.241430
  0
VERTEX
  8
0
 10
407.929567
 20
24.077145
 42
-0.174096
  0
VERTEX
  8
0
 10
407.293247
 20
24.407992
 42
-0.011184
  0
VERTEX
  8
0
 10
405.885014
 20
26.000000
 42
-0.052571
  0
VERTEX
  8
0
 10
402.873015
 20
30.432929
 42
-0.012829
  0
VERTEX
  8
0
 10
398.897059
 20
38.336221
 42
-0.013806
  0
VERTEX
  8
0
 10
395.185372
 20
46.810174
 42
-0.027703
  0
VERTEX
  8
0
 10
392.820049
 20
53.719394
 42
-0.031501
  0
VERTEX
  8
0
 10
391.043120
 20
61.996745
 42
-0.038731
  0
VERTEX
  8
0
 10
390.482260
 20
69.876151
 42
-0.043442
  0
VERTEX
  8
0
 10
391.125738
 20
76.760947
 42
-0.081952
  0
VERTEX
  8
0
 10
393.000000
 20
82.000000
 42
-0.032245
  0
VERTEX
  8
0
 10
394.398428
 20
84.174241
 42
-0.041227
  0
VERTEX
  8
0
 10
395.965306
 20
85.966362
 42
-0.041671
  0
VERTEX
  8
0
 10
397.790452
 20
87.462478
 42
-0.034088
  0
VERTEX
  8
0
 10
399.961890
 20
88.750000
 42
-0.018448
  0
VERTEX
  8
0
 10
403.245959
 20
90.256801
 42
-0.069798
  0
VERTEX
  8
0
 10
405.428979
 20
90.823302
 42
-0.068444
  0
VERTEX
  8
0
 10
407.705181
 20
90.772894
 42
-0.017302
  0
SEQEND
  0
POLYLINE
  8
0
 66
1
 70
1
  0
VERTEX
  8
0
 10
537.038110
 20
88.750000
 42
-0.034056
  0
VERTEX
  8
0
 10
539.210611
 20
87.462034
 42
-0.041793
  0
VERTEX
  8
0
 10
541.034040
 20
85.966972
 42
-0.041353
  0
VERTEX
  8
0
 10
542.598304
 20
84.175634
 42
-0.032242
  0
VERTEX
  8
0
 10
543.994996
 20
82.000000
 42
-0.111717
  0
VERTEX
  8
0
 10
546.396719
 20
73.763749
 42
-0.048519
  0
VERTEX
  8
0
 10
545.986870
 20
62.300756
 42
-0.042772
  0
VERTEX
  8
0
 10
543.076402
 20
49.174194
 42
-0.034808
  0
VERTEX
  8
0
 10
537.822407
 20
35.758622
 42
-0.008454
  0
VERTEX
  8
0
 10
536.108300
 20
32.296908
 42
-0.010362
  0
VERTEX
  8
0
 10
534.386273
 20
29.125189
 42
-0.008970
  0
VERTEX
  8
0
 10
532.843166
 20
26.527761
 42
-0.070424
  0
VERTEX
  8
0
 10
531.946791
 20
25.451846
 42
-0.049470
  0
VERTEX
  8
0
 10
530.886197
 20
24.667608
 42
-0.229412
  0
VERTEX
  8
0
 10
530.148032
 20
24.603356
 42
-0.133844
  0
VERTEX
  8
0
 10
529.387849
 20
25.157968
 42
-0.013904
  0
VERTEX
  8
0
 10
528.042648
 20
26.940106
 42
-0.034056
  0
VERTEX
  8
0
 10
524.829841
 20
32.172226
 42
-0.011638
  0
VERTEX
  8
0
 10
520.879463
 20
40.159019
 42
-0.011649
  0
VERTEX
  8
0
 10
517.303306
 20
48.325344
 42
-0.033791
  0
VERTEX
  8
0
 10
515.353449
 20
54.171872
 42
-0.037795
  0
VERTEX
  8
0
 10
514.075769
 20
61.241583
 42
-0.024204
  0
VERTEX
  8
0
 10
513.618192
 20
69.576739
 42
-0.022343
  0
VERTEX
  8
0
 10
513.912549
 20
77.271521
 42
-0.104242
  0
VERTEX
  8
0
 10
515.177365
 20
81.500000
 42
-0.083124
  0
VERTEX
  8
0
 10
519.336391
 20
86.812094
 42
-0.105501
  0
VERTEX
  8
0
 10
524.697500
 20
89.956537
 42
-0.107714
  0
VERTEX
  8
0
 10
530.786364
 20
90.602098
 42
-0.089761
  0
SEQEND
  0
POLYLINE
  8
0
 66
1
 70
1
  0
VERTEX
  8
0
 10
619.057980
 20
87.958714
 42
-0.044429
  0
VERTEX
  8
0
 10
620.357826
 20
86.846928
 42
-0.022186
  0
VERTEX
  8
0
 10
621.802573
 20
85.232720
 42
-0.021833
  0
VERTEX
  8
0
 10
623.160555
 20
83.416529
 42
-0.029966
  0
VERTEX
  8
0
 10
624.206344
 20
81.665785
 42
-0.124934
  0
VERTEX
  8
0
 10
626.550728
 20
71.651732
 42
-0.045386
  0
VERTEX
  8
0
 10
624.947431
 20
57.044383
 42
-0.043466
  0
VERTEX
  8
0
 10
620.337955
 20
41.421759
 42
-0.052753
  0
VERTEX
  8
0
 10
613.301459
 20
27.879349
 42
0.000000
  0
VERTEX
  8
0
 10
610.592202
 20
23.785386
 42
0.000000
  0
VERTEX
  8
0
 10
608.655215
 20
26.142693
 42
-0.054209
  0
VERTEX
  8
0
 10
605.857193
 20
30.417881
 42
-0.009003
  0
VERTEX
  8
0
 10
601.545657
 20
39.271021
 42
-0.010117
  0
VERTEX
  8
0
 10
597.528801
 20
48.389017
 42
-0.034993
  0
VERTEX
  8
0
 10
595.471288
 20
54.500000
 42
-0.023155
  0
VERTEX
  8
0
 10
594.101751
 20
60.972767
 42
-0.023772
  0
VERTEX
  8
0
 10
593.351349
 20
67.487913
 42
-0.025280
  0
VERTEX
  8
0
 10
593.254182
 20
73.344706
 42
-0.057853
  0
VERTEX
  8
0
 10
593.911044
 20
77.704531
 42
-0.054816
  0
VERTEX
  8
0
 10
595.357877
 20
81.384099
 42
-0.047443
  0
VERTEX
  8
0
 10
597.629009
 20
84.858353
 42
-0.048780
  0
VERTEX
  8
0
 10
600.430092
 20
87.739706
 42
-0.068910
  0
VERTEX
  8
0
 10
603.450423
 20
89.652024
 42
-0.085911
  0
VERTEX
  8
0
 10
606.947301
 20
90.565188
 42
-0.048062
  0
VERTEX
  8
0
 10
611.355969
 20
90.512194
 42
-0.047845
  0
VERTEX
  8
0
 10
615.712094
 20
89.612430
 42
-0.080038
  0
SEQEND
  0
POLYLINE
  8
0
 66
1
 70
1
  0
VERTEX
  8
0
 10
445.000000
 20
798.000000
 42
0.011213
  0
VERTEX
  8
0
 10
444.169589
 20
797.436556
 42
0.309569
  0
VERTEX
  8
0
 10
444.083458
 20
797.201904
 42
0.327416
  0
VERTEX
  8
0
 10
444.271084
 20
797.047261
 42
0.011938
  0
VERTEX
  8
0
 10
445.250000
 20
797.015313
 42
0.055234
  0
VERTEX
  8
0
 10
445.919445
 20
797.083567
 42
0.075283
  0
VERTEX
  8
0
 10
446.485937
 20
797.298248
 42
0.095191
  0
VERTEX
  8
0
 10
446.865757
 20
797.619685
 42
0.171310
  0
VERTEX
  8
0
 10
447.000000
 20
798.000000
 42
0.042895
  0
VERTEX
  8
0
 10
446.938046
 20
798.720828
 42
0.364836
  0
VERTEX
  8
0
 10
446.707705
 20
798.914708
 42
0.137048
  0
VERTEX
  8
0
 10
446.262820
 20
798.790433
 42
0.007234
  0
SEQEND
  0
POLYLINE
  8
0
 66
1
 70
1
  0
VERTEX
  8
0
 10
456.000000
 20
773.500000
 42
0.024748
  0
VERTEX
  8
0
 10
456.028469
 20
772.925176
 42
0.039339
  0
VERTEX
  8
0
 10
456.115447
 20
772.440625
 42
0.046727
  0
VERTEX
  8
0
 10
456.241071
 20
772.096084
 42
0.289661
  0
VERTEX
  8
0
 10
456.393011
 20
772.000000
 42
0.222225
  0
VERTEX
  8
0
 10
456.579329
 20
772.087111
 42
0.030693
  0
VERTEX
  8
0
 10
456.839659
 20
772.440625
 42
0.030395
  0
VERTEX
  8
0
 10
457.112506
 20
772.925442
 42
0.021360
  0
VERTEX
  8
0
 10
457.361626
 20
773.500000
 42
0.055937
  0
VERTEX
  8
0
 10
457.511135
 20
774.074366
 42
0.100118
  0
VERTEX
  8
0
 10
457.483616
 20
774.559375
 42
0.147206
  0
VERTEX
  8
0
 10
457.289193
 20
774.877514
 42
0.184534
  0
VERTEX
  8
0
 10
456.968615
 20
775.000000
 42
0.152681
  0
VERTEX
  8
0
 10
456.599211
 20
774.884506
 42
0.098158
  0
VERTEX
  8
0
 10
456.284531
 20
774.559375
 42
0.080880
  0
VERTEX
  8
0
 10
456.072230
 20
774.073532
 42
0.062722
  0
SEQEND
  0
ENDSEC
  0
EOF
